<svg version="1.1" xmlns="http://www.w3.org/2000/svg" style="display: block;" viewBox="0 0 2048 612" width="1000" height="299" preserveAspectRatio="none">
<defs>
	<linearGradient id="Gradient1" gradientUnits="userSpaceOnUse" x1="90.8894" y1="66.3445" x2="95.3087" y2="55.154">
		<stop class="stop0" offset="0" stop-opacity="0.988235" stop-color="rgb(42,48,42)"/>
		<stop class="stop1" offset="1" stop-opacity="1" stop-color="rgb(29,30,30)"/>
	</linearGradient>
	<linearGradient id="Gradient2" gradientUnits="userSpaceOnUse" x1="232.052" y1="92.5527" x2="230.948" y2="79.4473">
		<stop class="stop0" offset="0" stop-opacity="0.976471" stop-color="rgb(24,32,26)"/>
		<stop class="stop1" offset="1" stop-opacity="1" stop-color="rgb(12,13,12)"/>
	</linearGradient>
	<linearGradient id="Gradient3" gradientUnits="userSpaceOnUse" x1="1859.89" y1="513.557" x2="1860.35" y2="533.772">
		<stop class="stop0" offset="0" stop-opacity="0.984314" stop-color="rgb(62,65,60)"/>
		<stop class="stop1" offset="1" stop-opacity="1" stop-color="rgb(13,17,16)"/>
	</linearGradient>
	<linearGradient id="Gradient4" gradientUnits="userSpaceOnUse" x1="697.899" y1="405.675" x2="698.062" y2="410.219">
		<stop class="stop0" offset="0" stop-opacity="1" stop-color="rgb(42,48,48)"/>
		<stop class="stop1" offset="1" stop-opacity="1" stop-color="rgb(67,72,67)"/>
	</linearGradient>
	<linearGradient id="Gradient5" gradientUnits="userSpaceOnUse" x1="1637.29" y1="189.885" x2="1653.66" y2="212.424">
		<stop class="stop0" offset="0" stop-opacity="1" stop-color="rgb(68,70,67)"/>
		<stop class="stop1" offset="1" stop-opacity="1" stop-color="rgb(26,32,27)"/>
	</linearGradient>
	<linearGradient id="Gradient6" gradientUnits="userSpaceOnUse" x1="924.695" y1="530.756" x2="911.526" y2="547.22">
		<stop class="stop0" offset="0" stop-opacity="1" stop-color="rgb(25,25,25)"/>
		<stop class="stop1" offset="1" stop-opacity="1" stop-color="rgb(51,51,51)"/>
	</linearGradient>
	<linearGradient id="Gradient7" gradientUnits="userSpaceOnUse" x1="1935.75" y1="84.1456" x2="1862.76" y2="126.725">
		<stop class="stop0" offset="0" stop-opacity="1" stop-color="rgb(83,83,83)"/>
		<stop class="stop1" offset="1" stop-opacity="1" stop-color="rgb(133,134,129)"/>
	</linearGradient>
	<linearGradient id="Gradient8" gradientUnits="userSpaceOnUse" x1="1819.5" y1="107.147" x2="1874.45" y2="2.03167">
		<stop class="stop0" offset="0" stop-opacity="1" stop-color="rgb(198,204,199)"/>
		<stop class="stop1" offset="1" stop-opacity="1" stop-color="rgb(254,249,249)"/>
	</linearGradient>
	<linearGradient id="Gradient9" gradientUnits="userSpaceOnUse" x1="268.82" y1="158.059" x2="255.462" y2="175.9">
		<stop class="stop0" offset="0" stop-opacity="1" stop-color="rgb(167,167,165)"/>
		<stop class="stop1" offset="1" stop-opacity="1" stop-color="rgb(219,220,215)"/>
	</linearGradient>
	<linearGradient id="Gradient10" gradientUnits="userSpaceOnUse" x1="284.537" y1="238.977" x2="268.652" y2="267.681">
		<stop class="stop0" offset="0" stop-opacity="1" stop-color="rgb(75,74,71)"/>
		<stop class="stop1" offset="1" stop-opacity="1" stop-color="rgb(112,112,113)"/>
	</linearGradient>
</defs>
<path transform="translate(0,0)" fill="rgb(3,3,3)" d="M 296.98 82.3414 L 296.106 81.6762 C 295.993 79.6389 297.135 75.9858 296.727 74.4151 C 293.438 61.7638 286.694 49.6381 280.372 38.2491 C 277.312 32.7357 263.167 18.0568 265.598 11.0288 C 267.568 12.5543 269.059 13.9809 271.667 14.1593 C 290.002 12.2153 348.197 29.3049 358.895 51.3919 C 359.108 51.8313 358.465 53.2837 358.215 53.8471 C 356.504 62.5818 347.22 68.2986 345.529 76.8448 C 345.429 77.3504 345.337 77.4642 345.071 77.8931 C 345.427 84.181 355.128 85.3478 359.911 85.998 L 400.256 87.3615 C 422.232 88.0722 448.566 86.0209 470.335 83.4002 C 473.702 83.1942 475.608 82.6351 478.487 85.3146 C 484.612 91.0136 496.305 108.806 496.726 116.806 C 490.67 120.471 414.276 114.057 401.595 120.831 C 404.486 129.236 439.785 134.674 427.785 152.963 C 414.134 173.768 396.56 192.471 380.284 211.366 C 375.343 217.162 364.532 226.415 361.864 231.84 C 371.218 242.797 418.881 262.45 433.723 267.787 C 450.448 275.252 497.585 281.446 503.222 285.072 L 504.253 282.975 C 504.039 284.186 503.824 285.396 503.61 286.606 C 504.136 287.429 504.663 288.252 505.189 289.076 C 499.292 299.265 468.42 338.639 462.265 342.543 C 451.249 343.945 439.678 338.458 428.249 335.898 L 428.161 336.829 C 425.139 350.257 425.915 394.015 425.925 409.96 C 426.209 445.825 426.027 481.692 425.38 517.552 C 425.246 532.372 426.104 555.341 421.429 569.045 C 418.261 578.331 359.431 610.077 352.369 607.147 C 350.001 598.807 352.198 577.814 352.473 567.801 L 354.783 485.429 C 355.499 444.533 355.678 403.629 355.318 362.728 C 355.236 355.539 355.111 348.63 354.545 341.445 C 353.867 332.838 349.525 321.244 353.165 313.299 L 353.311 312.986 L 352.608 313.756 C 356.647 305.158 356.584 303.442 348.474 297.475 C 337.627 289.495 323.36 276.048 310.241 272.639 C 302.454 274.136 253.377 307.032 243.055 312.178 C 240.264 313.569 234.192 316.092 231.611 317.614 C 233.857 318.234 238.964 319.513 240.897 320.282 C 245.18 320.621 247.13 321.096 251.293 322.147 C 257.774 322.643 276.361 324.413 280.499 329.08 C 274.549 353.813 275.992 382.841 274.195 407.953 C 270.634 457.718 257.529 514.03 219.644 549.466 C 198.497 569.245 158.191 596.71 129.462 600.202 C 134.897 595.438 142.895 590.966 145.076 585.065 C 146.595 581.225 148.847 577.925 151.112 574.495 C 153.122 569.969 157.526 565.232 160.373 560.548 C 196.814 500.577 206.704 441.118 207.094 372.337 C 207.149 362.629 208.453 338.704 206.532 330.616 C 204.065 329.011 198.368 329.003 195.521 329.524 C 171.266 333.962 145.943 342.083 121.515 345.138 C 117.79 360.039 116.279 392.953 114.202 410.149 C 111.663 431.177 107.659 445.235 104.256 465.029 C 98.5419 498.261 92.1124 527.038 80.0714 558.803 C 75.8745 569.875 71.3254 575.741 66.5064 585.587 C 52.5533 580.186 18.0598 554.827 5.01096 544.669 C 36.753 487.464 63.7427 427.748 85.7076 366.124 C 92.6841 346.194 97.5132 326.115 104.109 306.052 C 109.75 288.892 119.769 271.637 120.53 253.508 C 122.132 252.784 123.632 252.535 125.337 252.175 L 125.243 250.513 C 123.765 250.187 122.548 249.886 121.08 249.466 L 121.715 248.027 L 125.454 246.718 C 123.519 243.505 122.311 246.345 120.805 241.505 L 121.55 240.113 L 124.676 243.62 L 125.904 243.478 L 124.513 239.085 C 125.548 237.417 126.25 236.625 126.143 234.626 L 127.559 232.864 C 131.846 230.153 131.479 223.427 134.684 221.456 C 142.874 227.857 123.238 291.341 124.707 304.074 C 125.401 310.093 124.996 327.716 123.583 333.353 C 123.56 333.416 122.274 336.187 122.15 336.464 C 124.151 337.427 130.202 337.754 132.044 336.397 L 131.084 334.398 L 131.95 333.511 C 135.791 330.527 141.904 326.539 146.105 323.583 C 152.103 318.016 182.738 301.664 191.696 295.087 C 194.213 293.239 208.487 283.797 210.937 282.536 C 224.706 273.615 266.346 244.413 275.727 233.705 C 270.08 227.782 268.318 221.868 263.537 215.222 C 249.723 196.018 223.175 156.245 217.567 133.494 L 215.313 122.941 C 215.329 122.161 214.831 120.699 214.59 119.873 C 205.646 115.932 179.602 119.648 169.242 116.584 C 165.233 115.398 154.021 97.0879 152.049 93.1348 L 155.782 92.0084 C 165.342 89.025 200.629 89.2427 211.557 89.8969 C 229.707 88.6851 287.021 92.2268 298.434 88.88 L 296.981 88.593 L 297.528 88.1573 C 298.536 85.3231 299.638 84.035 298.65 81.7938 L 296.98 82.3414 z M 360.219 119.607 C 345.415 117.649 237.996 113.693 234.994 123.518 C 237.25 127.035 244.805 141.046 246.05 142.571 C 259.434 158.963 293.58 192.53 312.122 199.85 L 313.086 199.915 C 315.231 198.501 319.611 195.386 320.599 193.291 C 326.282 181.243 358.26 126.74 360.219 119.607 z M 106.454 318.253 C 106.595 322.751 106.654 327.22 106.548 331.72 C 107.211 332.101 107.955 332.651 108.687 332.855 C 110.488 329.183 109.287 323.272 107.993 319.505 C 107.837 319.051 107.663 318.612 107.481 318.168 L 106.454 318.253 z M 86.5386 394.001 C 85.9331 397.389 82.8599 411.371 83.6782 413.801 C 86.1767 411.607 87.6661 408.369 88.7821 405.251 C 87.7882 400.712 89.8441 398.354 86.5386 394.001 z M 79.6298 428.705 C 75.995 433.291 74.5577 437.857 74.5723 443.692 L 76.6144 447.278 C 78.8483 445.213 79.9146 433.059 79.8671 429.683 C 79.8621 429.325 79.7507 429.036 79.6298 428.705 z M 211.794 507.101 C 211.712 506.918 211.628 506.736 211.547 506.552 C 210.479 504.107 211.32 500.866 209.786 499.204 C 207.849 500.944 206.21 507.25 204.8 509.861 C 202.756 513.648 199.776 516.39 197.54 519.959 C 191.99 528.816 189.337 538.033 181.234 545.187 C 174.983 555.436 167.738 563.655 159.746 572.53 L 165.377 573.062 C 166.701 569.987 188.064 548.325 192.64 542.48 C 201.103 531.671 206.523 519.696 211.794 507.101 z M 71.885 445.369 C 69.2739 452.747 63.8621 463.212 63.5663 470.892 C 64.6889 472.531 65.8503 474.053 67.1528 475.554 C 65.3275 476.067 63.5613 476.606 61.8009 477.315 C 63.0435 479.053 65.053 479.604 66.9659 480.353 C 68.5282 475.202 68.389 468.947 68.0924 463.602 C 68.867 463.534 71.591 464.745 71.6873 464.635 C 73.8072 462.213 73.9135 451.107 74.0782 447.528 L 71.885 445.369 z M 46.9051 521.449 C 44.815 526.452 36.6046 536.566 36.7073 540.931 C 41.7038 538.121 45.9223 532.193 47.4831 526.685 C 48.1142 524.458 47.9477 523.466 46.9051 521.449 z"/>
<path transform="translate(0,0)" fill="rgb(90,94,90)" fill-opacity="0.988235" d="M 181.234 545.187 C 189.337 538.033 191.99 528.816 197.54 519.959 C 199.776 516.39 202.756 513.648 204.8 509.861 C 206.21 507.25 207.849 500.944 209.786 499.204 C 211.32 500.866 210.479 504.107 211.547 506.552 C 211.628 506.736 211.712 506.918 211.794 507.101 C 206.523 519.696 201.103 531.671 192.64 542.48 C 188.064 548.325 166.701 569.987 165.377 573.062 L 159.746 572.53 C 167.738 563.655 174.983 555.436 181.234 545.187 z"/>
<path transform="translate(0,0)" fill="rgb(3,3,3)" d="M 217.567 133.494 C 220.809 132.044 222.165 131.726 225.526 130.948 C 237.577 148.538 261.992 181.582 278.154 194.212 C 279.278 200.158 295.456 214.282 300.926 219.716 L 301.982 219.937 C 304.867 217.582 304.2 217.401 307.379 217.032 C 318.893 225.462 295.605 231.61 292.987 238.57 C 293.772 245.007 289.572 246.323 286.977 251.639 C 279.193 258.799 262.982 271.254 253.849 276.181 C 254.457 274.592 254.776 273.963 254.838 272.205 C 253.078 271.518 249.714 272.081 247.684 272.286 C 242.896 275.161 235.627 279.802 230.868 282.287 C 220.954 281.529 219.308 287.583 210.937 282.536 C 224.706 273.615 266.346 244.413 275.727 233.705 C 270.08 227.782 268.318 221.868 263.537 215.222 C 249.723 196.018 223.175 156.245 217.567 133.494 z"/>
<path transform="translate(0,0)" fill="url(#Gradient10)" d="M 292.987 238.57 C 293.772 245.007 289.572 246.323 286.977 251.639 C 279.193 258.799 262.982 271.254 253.849 276.181 C 254.457 274.592 254.776 273.963 254.838 272.205 C 253.078 271.518 249.714 272.081 247.684 272.286 C 256.091 265.89 264.451 258.717 273.046 252.628 C 280.121 247.616 286.091 244.008 292.987 238.57 z"/>
<path transform="translate(0,0)" fill="rgb(60,62,60)" d="M 215.313 122.941 L 216.697 119.878 C 223.75 117.268 229.363 118.77 234.994 123.518 C 237.25 127.035 244.805 141.046 246.05 142.571 C 259.434 158.963 293.58 192.53 312.122 199.85 L 309.864 204.017 C 310.686 205.811 313.342 208.669 314.75 210.286 C 320.349 210.084 322.448 204.074 325.443 199.757 C 334.747 186.345 351.039 176.069 360.717 163.674 C 358.262 167.993 349.539 179.941 348.827 182.106 C 350.448 183.033 351.239 183.51 352.746 184.666 C 350.135 188.88 347.918 192.064 344.976 196.059 L 346.352 194.922 L 345.743 194.938 C 353.152 190.393 368.411 169.201 371.227 160.774 L 372.038 160.674 C 371.273 173.078 333.621 212.178 323.23 221.391 C 319.599 224.61 313.731 225.504 309.934 228.922 C 303.046 235.123 297.126 245.241 289.508 250.184 C 288.756 250.672 287.774 251.224 286.977 251.639 C 289.572 246.323 293.772 245.007 292.987 238.57 C 295.605 231.61 318.893 225.462 307.379 217.032 C 304.2 217.401 304.867 217.582 301.982 219.937 L 300.926 219.716 C 295.456 214.282 279.278 200.158 278.154 194.212 C 261.992 181.582 237.577 148.538 225.526 130.948 C 222.165 131.726 220.809 132.044 217.567 133.494 L 215.313 122.941 z"/>
<path transform="translate(0,0)" fill="url(#Gradient9)" d="M 219.941 119.999 C 231.403 126.033 246.976 149.687 257.282 161.168 C 267.24 172.282 277.88 182.767 289.139 192.561 C 294.709 197.401 311.856 206.782 309.124 213.076 C 300.721 217.294 285.589 199.279 278.154 194.212 C 261.992 181.582 237.577 148.538 225.526 130.948 L 219.941 119.999 z"/>
<path transform="translate(0,0)" fill="rgb(244,245,244)" d="M 348.55 237.723 C 357.578 236.492 358.464 231.977 361.864 231.84 C 371.218 242.797 418.881 262.45 433.723 267.787 C 450.448 275.252 497.585 281.446 503.222 285.072 C 499.76 288.94 483.533 293.144 478.798 293.423 C 457.444 294.68 352.827 254.776 346.346 239.164 L 348.55 237.723 z"/>
<path transform="translate(0,0)" fill="rgb(60,62,60)" d="M 348.55 237.723 C 357.578 236.492 358.464 231.977 361.864 231.84 C 371.218 242.797 418.881 262.45 433.723 267.787 C 432.514 267.598 432.649 267.66 431.571 267.746 C 409.969 269.479 366.314 238.546 348.55 237.723 z"/>
<path transform="translate(0,0)" fill="rgb(38,39,38)" d="M 271.667 14.1593 C 290.002 12.2153 348.197 29.3049 358.895 51.3919 C 359.108 51.8313 358.465 53.2837 358.215 53.8471 L 356.967 53.0381 L 353.998 53.8328 C 349.767 54.1304 344.679 54.1101 340.371 54.2033 C 335.532 55.0074 331.428 54.3315 326.589 53.7926 C 321.658 50.0682 316.78 46.2747 311.956 42.4133 C 305.723 35.8479 293.163 28.0291 284.838 24.5599 C 277.352 24.1688 273.724 20.7683 271.667 14.1593 z"/>
<path transform="translate(0,0)" fill="rgb(244,245,244)" d="M 284.838 24.5599 C 296.188 17.013 331.906 38.1075 342.907 44.2941 L 346.654 50.5565 L 346.047 52.3103 C 344.149 52.9228 342.257 53.5538 340.371 54.2033 C 335.532 55.0074 331.428 54.3315 326.589 53.7926 C 321.658 50.0682 316.78 46.2747 311.956 42.4133 C 305.723 35.8479 293.163 28.0291 284.838 24.5599 z"/>
<path transform="translate(0,0)" fill="rgb(205,206,203)" d="M 342.907 44.2941 C 347.189 45.7982 353.229 47.5784 356.681 50.2618 C 356.867 51.1909 357.162 52.1388 356.967 53.0381 L 353.998 53.8328 C 349.767 54.1304 344.679 54.1101 340.371 54.2033 C 342.257 53.5538 344.149 52.9228 346.047 52.3103 L 346.654 50.5565 L 342.907 44.2941 z"/>
<path transform="translate(0,0)" fill="rgb(205,206,203)" d="M 331.866 89.7487 C 335.39 85.0348 335.145 81.7057 339.595 77.9091 C 343.057 76.8309 341.726 76.7733 345.071 77.8931 C 345.427 84.181 355.128 85.3478 359.911 85.998 L 400.256 87.3615 C 422.232 88.0722 448.566 86.0209 470.335 83.4002 L 472.568 84.3327 C 472.902 87.5883 470.878 89.5877 468.322 91.5505 C 456.577 100.011 377.801 92.6207 360.111 94.7864 C 354.641 95.4561 331.946 95.7034 328.858 91.4094 L 331.866 89.7487 z"/>
<path transform="translate(0,0)" fill="rgb(153,154,150)" d="M 470.335 83.4002 L 472.568 84.3327 C 472.902 87.5883 470.878 89.5877 468.322 91.5505 C 460.742 86.1838 405.006 90.5521 400.256 87.3615 C 422.232 88.0722 448.566 86.0209 470.335 83.4002 z"/>
<path transform="translate(0,0)" fill="rgb(22,24,22)" d="M 331.866 89.7487 C 335.39 85.0348 335.145 81.7057 339.595 77.9091 C 343.057 76.8309 341.726 76.7733 345.071 77.8931 C 345.427 84.181 355.128 85.3478 359.911 85.998 C 354.71 88.3067 339.777 88.2831 331.866 89.7487 z"/>
<path transform="translate(0,0)" fill="rgb(153,154,150)" d="M 247.684 272.286 C 249.714 272.081 253.078 271.518 254.838 272.205 C 254.776 273.963 254.457 274.592 253.849 276.181 C 241.745 283.626 170.279 325.218 161.073 323.493 L 154.995 322.523 L 154.224 321.237 C 150.651 321.836 149.386 322.32 146.105 323.583 C 152.103 318.016 182.738 301.664 191.696 295.087 C 194.213 293.239 208.487 283.797 210.937 282.536 C 219.308 287.583 220.954 281.529 230.868 282.287 C 235.627 279.802 242.896 275.161 247.684 272.286 z"/>
<path transform="translate(0,0)" fill="rgb(22,24,22)" d="M 210.937 282.536 C 219.308 287.583 220.954 281.529 230.868 282.287 C 216.437 289.814 166.663 317.693 154.224 321.237 C 150.651 321.836 149.386 322.32 146.105 323.583 C 152.103 318.016 182.738 301.664 191.696 295.087 C 194.213 293.239 208.487 283.797 210.937 282.536 z"/>
<path transform="translate(0,0)" fill="rgb(38,39,38)" d="M 181.234 545.187 C 183.477 531.415 194.504 519.821 199.818 507.259 C 203.327 498.962 203.159 490.087 207.501 481.736 L 209.109 481.524 C 210.039 484.03 207.033 487.362 207.169 490.796 C 211.832 488.892 217.39 469.43 220.417 464.108 C 221.663 467.853 217.348 474.39 217.768 478.816 C 217.833 479.5 219.438 480.452 220.02 480.907 L 221.783 480.107 C 225.596 474.185 226.159 466.426 226.916 459.568 L 227.818 459.316 C 227.91 459.704 227.919 459.71 227.983 460.16 C 229.325 469.744 217.466 499.306 211.794 507.101 C 211.712 506.918 211.628 506.736 211.547 506.552 C 210.479 504.107 211.32 500.866 209.786 499.204 C 207.849 500.944 206.21 507.25 204.8 509.861 C 202.756 513.648 199.776 516.39 197.54 519.959 C 191.99 528.816 189.337 538.033 181.234 545.187 z"/>
<path transform="translate(0,0)" fill="rgb(22,24,22)" d="M 311.956 42.4133 C 316.78 46.2747 321.658 50.0682 326.589 53.7926 C 331.428 54.3315 335.532 55.0074 340.371 54.2033 C 344.679 54.1101 349.767 54.1304 353.998 53.8328 C 345.412 60.3091 327.226 57.4042 324.952 59.9207 C 322.677 62.4386 324.315 67.2201 319.49 71.0235 C 318.834 76.531 319.731 78.2687 314.222 80.7695 L 313.325 82.0323 C 315.519 86.2486 313.357 87.1767 310.653 90.3862 L 309.688 90.0163 C 309.278 85.8371 307.993 80.4555 307.943 76.5274 C 307.82 67.0223 320.449 67.5068 317.457 54.5868 C 316.192 49.1227 312.083 47.5584 311.956 42.4133 z"/>
<path transform="translate(0,0)" fill="rgb(38,39,38)" d="M 314.222 80.7695 C 310.524 79.6297 310.408 79.43 309.264 76.0287 C 310.87 69.7809 314.097 69.7736 319.49 71.0235 C 318.834 76.531 319.731 78.2687 314.222 80.7695 z"/>
<path transform="translate(0,0)" fill="rgb(109,110,107)" d="M 416.962 336.453 C 411.023 334.683 360.382 318.873 357.79 316.532 C 356.365 313.665 357.644 310.852 358.557 307.727 L 359.526 307.243 C 375.557 315.916 398.044 323.796 415.634 331.115 C 417.82 334.235 417.532 332.892 416.962 336.453 z"/>
<path transform="translate(0,0)" fill="rgb(205,206,203)" d="M 211.557 89.8969 C 229.707 88.6851 287.021 92.2268 298.434 88.88 C 301.846 89.9185 302.041 89.3233 303.615 91.8111 C 299.414 95.9276 244.138 94.5362 234.139 94.4344 L 210.317 94.0765 C 213.655 92.6909 219.006 91.4764 222.641 91.4837 C 217.483 91.5463 216.314 91.4232 211.557 89.8969 z"/>
<path transform="translate(0,0)" fill="rgb(22,24,22)" d="M 212.812 322.174 C 217.03 318.449 226.484 313.884 231.611 317.614 C 233.857 318.234 238.964 319.513 240.897 320.282 C 245.18 320.621 247.13 321.096 251.293 322.147 C 249.709 324.376 248.898 325.624 246.339 326.692 C 240.87 328.974 211.552 329.159 207.489 327.279 C 208.153 324.499 209.933 324.125 212.812 322.174 z"/>
<path transform="translate(0,0)" fill="rgb(60,62,60)" d="M 212.812 322.174 C 217.03 318.449 226.484 313.884 231.611 317.614 C 233.857 318.234 238.964 319.513 240.897 320.282 C 236.402 323.335 222.582 326.084 216.928 325.517 C 214.875 325.311 214.168 323.803 212.812 322.174 z"/>
<path transform="translate(0,0)" fill="rgb(205,206,203)" d="M 155.782 92.0084 C 165.342 89.025 200.629 89.2427 211.557 89.8969 C 216.314 91.4232 217.483 91.5463 222.641 91.4837 C 219.006 91.4764 213.655 92.6909 210.317 94.0765 C 201.892 94.7581 162.462 94.8459 155.782 92.0084 z"/>
<path transform="translate(0,0)" fill="rgb(60,62,60)" d="M 384.831 344.07 C 383.202 343.932 361.946 329.883 362.167 324.943 C 368.31 323.937 383.14 334.365 389.059 338.14 C 385.065 339.519 384.482 339.387 384.831 344.07 z"/>
<path transform="translate(0,0)" fill="rgb(205,206,203)" d="M 384.831 344.07 C 384.482 339.387 385.065 339.519 389.059 338.14 C 395.584 341.171 403.158 345.144 410.369 345.303 L 410.13 347.697 C 408.788 348.107 407.439 348.496 406.084 348.863 C 396.419 351.456 392.998 348.757 384.831 344.07 z"/>
<path transform="translate(0,0)" fill="rgb(38,39,38)" d="M 151.112 574.495 C 154.048 573.284 156.484 572.143 159.746 572.53 L 165.377 573.062 C 164.921 576.208 162.544 578.056 160.132 579.85 C 156.944 582.22 150.261 586.158 146.226 585.412 C 145.832 585.339 145.441 585.229 145.076 585.065 C 146.595 581.225 148.847 577.925 151.112 574.495 z"/>
<path transform="translate(0,0)" fill="rgb(90,94,90)" d="M 146.105 323.583 C 149.386 322.32 150.651 321.836 154.224 321.237 L 154.995 322.523 L 161.073 323.493 C 154.34 328.375 140.282 336.015 131.95 333.511 C 135.791 330.527 141.904 326.539 146.105 323.583 z"/>
<path transform="translate(0,0)" fill="rgb(90,94,90)" d="M 415.634 331.115 C 419.167 332.419 425.011 334.377 428.249 335.898 L 428.161 336.829 C 425.458 338.443 411.86 346.95 410.13 347.697 L 410.369 345.303 C 410.266 343.242 410.212 341.179 410.207 339.115 C 413.431 338.375 414.143 338.169 416.962 336.453 C 417.532 332.892 417.82 334.235 415.634 331.115 z"/>
<path transform="translate(0,0)" fill="rgb(38,39,38)" d="M 49.6493 501.023 L 51.1075 498.573 C 53.8837 498.554 55.6287 500.344 58.3637 500.303 C 59.6001 508.089 48.8468 535.558 44.1032 542.216 C 38.8091 542.98 21.6674 544.405 17.196 541.785 C 17.0459 537.799 28.7399 525.929 31.7845 522.128 C 32.9792 523.259 34.3494 524.753 35.9069 525.336 C 37.6747 525.998 38.2581 525.644 39.8823 524.934 C 41.5121 521.92 41.1144 520.308 40.5391 516.993 C 42.5889 514.421 43.0377 516.173 45.8825 515.055 L 46.3873 513.478 C 45.4739 512.448 44.5105 511.402 43.7196 510.275 C 42.1953 508.104 41.9125 507.327 42.3026 504.803 C 44.777 502.055 46.1754 501.971 49.6493 501.023 z M 36.7073 540.931 C 41.7038 538.121 45.9223 532.193 47.4831 526.685 C 48.1142 524.458 47.9477 523.466 46.9051 521.449 C 44.815 526.452 36.6046 536.566 36.7073 540.931 z"/>
<path transform="translate(0,0)" fill="rgb(153,154,150)" fill-opacity="0.576471" d="M 46.9051 521.449 C 47.9477 523.466 48.1142 524.458 47.4831 526.685 C 45.9223 532.193 41.7038 538.121 36.7073 540.931 C 36.6046 536.566 44.815 526.452 46.9051 521.449 z"/>
<path transform="translate(0,0)" fill="rgb(38,39,38)" d="M 392 484.557 L 393.388 485.494 C 392.209 498.567 391.972 511.583 392.115 524.698 C 392.22 534.322 393.664 545.563 391.844 554.939 C 391.043 559.069 388.831 562.874 386.607 566.392 C 383.342 571.556 362.146 597.183 358.058 598.117 C 355.282 597.598 354.863 597.398 352.793 595.481 C 351.069 586.845 366.095 575.322 366.116 562.061 C 366.116 561.963 366.114 561.864 366.113 561.766 C 365.894 556.073 365.815 550.375 365.877 544.678 C 367.254 550.791 368.311 562.215 366.84 568.238 C 365.949 571.887 363.997 575.276 363.006 578.992 L 364.147 579.431 C 367.215 576.51 365.84 571.412 368.902 568.457 C 371.021 568.011 373.203 567.83 375.127 569.067 C 377.537 570.617 377.396 572.91 377.796 575.466 C 380.318 572.405 383.056 569.477 385.023 566.014 L 382.46 564.973 L 382.453 564.053 C 384.444 562.948 386.71 561.777 388.332 560.157 C 390.086 558.405 390.362 556.028 390.61 553.674 C 391.657 543.708 390.696 533.251 390.789 523.215 C 390.909 510.305 391.803 497.448 392 484.557 z"/>
<path transform="translate(0,0)" fill="rgb(60,62,60)" d="M 368.272 569.859 C 370.055 569.869 372.165 569.718 373.813 570.474 C 375.3 571.157 375.338 571.887 375.879 573.322 C 374.474 577.773 368.043 582.784 364.881 586.31 C 364.454 587.327 363.689 587.675 362.79 588.217 C 361.134 582.378 369.22 577.041 368.272 569.859 z"/>
<path transform="translate(0,0)" fill="rgb(22,24,22)" d="M 102.494 344.236 C 105.256 341.576 108.053 342.322 111.369 343.886 L 112.023 345.701 C 109.265 349.902 108.231 348.732 104.776 354.158 C 103.006 356.557 101.199 358.759 100.093 361.535 C 101.531 363.696 102.178 364.359 101.963 366.899 C 100.512 369.057 96.0798 375.676 95.4853 377.889 C 93.495 385.294 95.5193 400.361 88.7821 405.251 C 87.7882 400.712 89.8441 398.354 86.5386 394.001 C 87.3695 380.357 95.5431 356.11 102.494 344.236 z"/>
<path transform="translate(0,0)" fill="rgb(22,24,22)" d="M 102.494 344.236 C 105.256 341.576 108.053 342.322 111.369 343.886 L 112.023 345.701 C 109.265 349.902 108.231 348.732 104.776 354.158 C 104.337 351.189 104.161 348.035 103.934 345.03 L 102.494 344.236 z"/>
<path transform="translate(0,0)" fill="rgb(244,245,244)" d="M 262.912 334.313 L 264.074 334.461 L 263.72 335.635 C 256.604 339.773 249.491 344.321 241.86 347.431 C 239.079 345.786 236.381 343.914 233.665 342.158 C 230.61 339.651 226.973 337.682 223.602 335.619 C 237.481 336.682 249.102 336.607 262.912 334.313 z"/>
<path transform="translate(0,0)" fill="rgb(22,24,22)" d="M 49.6493 501.023 C 47.8485 498.958 46.1229 497.391 43.8359 495.878 C 45.5125 491.987 48.3047 488.93 51.0034 485.719 C 53.4164 485.384 55.7932 486.104 57.8186 487.556 C 59.5249 488.779 60.9546 490.461 62.0733 492.226 C 61.9192 496.022 60.6163 497.327 58.3637 500.303 C 55.6287 500.344 53.8837 498.554 51.1075 498.573 L 49.6493 501.023 z"/>
<path transform="translate(0,0)" fill="rgb(3,3,3)" fill-opacity="0.0156863" d="M 71.885 445.369 L 74.0782 447.528 C 73.9135 451.107 73.8072 462.213 71.6873 464.635 C 71.591 464.745 68.867 463.534 68.0924 463.602 C 68.389 468.947 68.5282 475.202 66.9659 480.353 C 65.053 479.604 63.0435 479.053 61.8009 477.315 C 63.5613 476.606 65.3275 476.067 67.1528 475.554 C 65.8503 474.053 64.6889 472.531 63.5663 470.892 C 63.8621 463.212 69.2739 452.747 71.885 445.369 z"/>
<path transform="translate(0,0)" fill="rgb(60,62,60)" fill-opacity="0.988235" d="M 86.5386 394.001 C 89.8441 398.354 87.7882 400.712 88.7821 405.251 C 87.6661 408.369 86.1767 411.607 83.6782 413.801 C 82.8599 411.371 85.9331 397.389 86.5386 394.001 z"/>
<path transform="translate(0,0)" fill="rgb(3,3,3)" fill-opacity="0.0901961" d="M 79.6298 428.705 C 79.7507 429.036 79.8621 429.325 79.8671 429.683 C 79.9146 433.059 78.8483 445.213 76.6144 447.278 L 74.5723 443.692 C 74.5577 437.857 75.995 433.291 79.6298 428.705 z"/>
<path transform="translate(0,0)" fill="rgb(22,24,22)" fill-opacity="0.984314" d="M 106.454 318.253 L 107.481 318.168 C 107.663 318.612 107.837 319.051 107.993 319.505 C 109.287 323.272 110.488 329.183 108.687 332.855 C 107.955 332.651 107.211 332.101 106.548 331.72 C 106.654 327.22 106.595 322.751 106.454 318.253 z"/>
<path transform="translate(0,0)" fill="rgb(3,3,3)" d="M 1920.67 40.3746 C 1929.49 36.2523 1933.15 31.5281 1943.15 31.025 C 1945.62 31.3645 1951.37 32.262 1953.43 33.2037 C 1960.48 36.4225 1983.27 51.2469 1984.93 58.0495 C 1988.86 60.6636 1988.7 59.7086 1990.19 63.5732 C 1989.69 76.5699 1950.45 103.997 1941.16 113.962 C 1931.05 124.807 1884.59 146.032 1880.39 157.045 C 1881.06 161.356 1880.46 162.018 1883.06 164.973 C 1904.46 165.305 1928.62 166.918 1949.39 161.892 C 1956.53 160.166 1964.49 150.553 1969.57 149.651 C 1977.98 150.435 1994.97 157.916 1999.04 165.275 C 2002.68 168.497 2004.7 169.812 2008.84 172.42 C 2000.25 186.479 2001.06 193.606 2000.78 209.632 C 1994.34 218.797 1996.92 271.446 1996.83 284.533 C 1996.4 319.241 1996.3 353.953 1996.54 388.663 C 1996.59 400.362 1997.14 411.298 1997.45 422.857 C 1997.66 430.663 1993.58 443.622 1993.65 452.19 C 1991.64 464.924 1961.45 503.134 1944.45 502.442 C 1940.14 502.267 1928.78 486.095 1924.59 481.607 C 1915.61 471.977 1902.81 465.519 1894.07 455.794 C 1892.25 453.805 1887.6 456.7 1887.32 450.257 C 1889.02 450.367 1889.88 450.668 1891.48 451.134 C 1903.67 443.944 1932.74 446.915 1934.68 444.313 C 1942.77 433.482 1940.48 381.988 1939.85 368.741 C 1928.83 367.879 1886.61 366.342 1878.05 369.479 C 1870.49 374.587 1875.64 441.545 1871.64 453.547 C 1871.22 454.809 1870.66 457.407 1870.25 458.845 C 1858.41 469.205 1835.98 481.133 1819.66 481.681 C 1818.59 456.27 1818.81 430.934 1818.89 405.499 C 1818.93 393.269 1818.77 382.088 1817 369.962 C 1799.91 367.491 1782.11 368.09 1764.82 368.175 C 1761.01 397.462 1765.86 429.617 1760.52 462.159 C 1742.31 479.905 1730.21 479.153 1714.23 493.828 C 1709.17 495.044 1704.84 495.288 1699.7 495.7 C 1699.8 420.652 1701.3 345.977 1698.47 270.901 C 1697.01 232.115 1699.45 193.412 1693.89 154.63 L 1694.53 154.257 L 1696.22 155.004 L 1697.16 154 L 1696.97 152.275 C 1711.47 149.684 1734.07 159.565 1745.82 159.072 C 1752.84 158.777 1814.53 161.212 1816.74 160.244 L 1816.35 157.89 L 1819.46 153.763 C 1815.46 139.647 1789.01 108.622 1777.81 100.389 L 1777.48 100.149 L 1777.39 99.0477 C 1782.05 96.9453 1795.31 101.2 1802.91 102.202 C 1810.65 105.418 1864.5 123.67 1868.57 122.913 C 1870.14 119.862 1874.89 117.324 1877.4 114.673 C 1883 108.76 1904.16 88.926 1901.78 79.8759 C 1888.64 64.993 1746.84 79.7808 1719.61 75.2252 C 1707.04 73.1218 1692.71 51.9334 1694.02 43.5642 L 1695.08 43.2015 L 1696.93 44.2757 C 1701.47 46.5094 1706.87 44.943 1712.38 45.2116 C 1718.55 44.7595 1732.07 45.4442 1738.87 45.5757 C 1756.29 45.9697 1773.72 46.165 1791.15 46.1616 C 1824.12 46.0298 1856.55 41.8687 1889.52 42.249 C 1899.01 42.3586 1910.15 42.6301 1919.2 39.8864 L 1920.67 40.3746 z M 1875.06 248.045 C 1883.13 247.702 1891.17 247.989 1899.25 248.246 C 1910.16 248.818 1924.03 251.156 1934.61 249.127 C 1938.29 242.824 1936.59 199.729 1935.16 191.325 C 1929.39 190.962 1923.58 190.462 1917.8 190.478 C 1908.44 190.538 1883.12 187.955 1876.31 194.686 C 1873.41 197.557 1872.87 202.107 1872.97 206.007 C 1873.34 219.876 1873.53 234.274 1875.06 248.045 z M 1929.61 331.858 L 1930.58 331.937 C 1931.09 331.536 1931.6 331.126 1932.1 330.709 C 1938.49 325.355 1938.57 282.726 1936.2 279.921 C 1926.19 276.738 1885.1 278.974 1875.75 283.567 C 1876.95 298.474 1873.76 316.086 1875.73 329.855 C 1877.52 342.328 1921.55 329.063 1929.61 331.858 z M 1763.1 247.314 C 1780.49 248.793 1799.22 247.912 1816.65 246.781 C 1819.78 243.387 1819.24 215.814 1819 209.852 C 1818.81 205.064 1818.15 198.597 1814.47 195.134 C 1807.93 188.981 1776.12 194.567 1765.27 191.692 C 1758.83 209.714 1764.47 228.782 1763.1 247.314 z M 1815.86 334.731 C 1818.05 332.937 1817.84 331.559 1818.1 328.85 C 1819.52 314.473 1819.76 297.048 1817.9 282.677 C 1801.56 280.615 1782.14 280.469 1765.71 282.493 C 1763.94 283.726 1763.69 283.864 1763.3 286.06 C 1762.2 292.144 1761.92 329.013 1764.66 332.797 C 1765.8 334.366 1768.88 334.86 1770.76 335.109 C 1784.67 336.952 1801.82 335.514 1815.86 334.731 z"/>
<path transform="translate(0,0)" fill="url(#Gradient8)" d="M 1920.67 40.3746 C 1929.49 36.2523 1933.15 31.5281 1943.15 31.025 C 1945.62 31.3645 1951.37 32.262 1953.43 33.2037 C 1960.48 36.4225 1983.27 51.2469 1984.93 58.0495 C 1984.21 59.3389 1983.11 60.9558 1982.97 62.3517 C 1971.47 65.713 1956.63 61.3191 1944.82 58.0544 C 1944.45 57.9506 1943.27 54.4823 1940.73 54.3822 C 1935.03 54.1577 1923.93 55.091 1919.02 55.0434 C 1886.47 54.7273 1728.49 61.1684 1706.03 52.3717 C 1704.44 51.89 1704.01 51.1435 1702.9 49.8972 L 1703.41 48.3772 C 1706.9 45.8291 1708.16 45.7763 1712.38 45.2116 C 1718.55 44.7595 1732.07 45.4442 1738.87 45.5757 C 1756.29 45.9697 1773.72 46.165 1791.15 46.1616 C 1824.12 46.0298 1856.55 41.8687 1889.52 42.249 C 1899.01 42.3586 1910.15 42.6301 1919.2 39.8864 L 1920.67 40.3746 z"/>
<path transform="translate(0,0)" fill="rgb(90,94,90)" d="M 1919.2 39.8864 L 1920.67 40.3746 C 1924.52 46.2833 1924.15 46.7003 1931.22 47.5811 C 1911.73 49.364 1879.75 48.3075 1859.08 48.2706 L 1765.23 48.9557 C 1747.92 48.926 1730.53 48.3069 1713.27 48.8987 C 1710.3 49.0005 1707.83 49.971 1706.03 52.3717 C 1704.44 51.89 1704.01 51.1435 1702.9 49.8972 L 1703.41 48.3772 C 1706.9 45.8291 1708.16 45.7763 1712.38 45.2116 C 1718.55 44.7595 1732.07 45.4442 1738.87 45.5757 C 1756.29 45.9697 1773.72 46.165 1791.15 46.1616 C 1824.12 46.0298 1856.55 41.8687 1889.52 42.249 C 1899.01 42.3586 1910.15 42.6301 1919.2 39.8864 z"/>
<path transform="translate(0,0)" fill="rgb(60,62,60)" d="M 1943.15 31.025 C 1945.62 31.3645 1951.37 32.262 1953.43 33.2037 C 1960.48 36.4225 1983.27 51.2469 1984.93 58.0495 C 1984.21 59.3389 1983.11 60.9558 1982.97 62.3517 C 1980 58.7932 1948.18 38.0302 1942.45 35.3805 L 1943.15 31.025 z"/>
<path transform="translate(0,0)" fill="rgb(22,24,22)" d="M 1920.67 40.3746 C 1929.49 36.2523 1933.15 31.5281 1943.15 31.025 L 1942.45 35.3805 C 1939.82 40.2057 1935.46 44.082 1931.22 47.5811 C 1924.15 46.7003 1924.52 46.2833 1920.67 40.3746 z"/>
<path transform="translate(0,0)" fill="rgb(244,245,244)" d="M 1697.16 154 L 1696.97 152.275 C 1711.47 149.684 1734.07 159.565 1745.82 159.072 C 1752.84 158.777 1814.53 161.212 1816.74 160.244 C 1823.33 165.391 1820.18 163.961 1829.32 165.984 C 1831.95 166.375 1836.95 166.73 1838.22 168.421 C 1820.27 178.523 1759.21 169.538 1731.89 176.473 C 1724.64 173.074 1714.96 166.546 1707.16 162.373 C 1702.41 162.405 1698.81 158.027 1697.16 154 z"/>
<path transform="translate(0,0)" fill="rgb(38,39,38)" d="M 1697.16 154 L 1696.97 152.275 C 1711.47 149.684 1734.07 159.565 1745.82 159.072 C 1752.84 158.777 1814.53 161.212 1816.74 160.244 C 1823.33 165.391 1820.18 163.961 1829.32 165.984 L 1764.44 165.94 C 1754.59 165.89 1744.47 165.865 1734.59 165.616 C 1727.74 165.443 1712.38 159.382 1707.16 162.373 C 1702.41 162.405 1698.81 158.027 1697.16 154 z"/>
<path transform="translate(0,0)" fill="rgb(244,245,244)" d="M 1969.57 149.651 C 1977.98 150.435 1994.97 157.916 1999.04 165.275 L 1997.25 166.692 L 1997.46 170.066 L 1994.89 169.643 C 1987.56 171.995 1980.45 176.897 1972.48 177.513 C 1968.79 175.901 1970.89 176.214 1969.2 173.558 C 1965.73 168.11 1949.05 171.688 1942.75 171.566 C 1921.1 171.145 1882.81 176.009 1862.84 170.705 L 1862.02 169.144 L 1863.66 166.19 C 1870 165.219 1876.64 165.169 1883.06 164.973 C 1904.46 165.305 1928.62 166.918 1949.39 161.892 C 1956.53 160.166 1964.49 150.553 1969.57 149.651 z"/>
<path transform="translate(0,0)" fill="rgb(38,39,38)" d="M 1969.57 149.651 C 1977.98 150.435 1994.97 157.916 1999.04 165.275 L 1997.25 166.692 L 1997.46 170.066 L 1994.89 169.643 C 1993.46 167.104 1992.62 167.41 1990.1 165.966 C 1982.48 161.594 1976.05 155.532 1969.57 149.651 z"/>
<path transform="translate(0,0)" fill="rgb(244,245,244)" d="M 1802.91 102.202 C 1810.65 105.418 1864.5 123.67 1868.57 122.913 L 1869.42 124.196 C 1867.63 125.127 1866.99 125.341 1865.11 125.929 L 1864.29 128.54 C 1867.64 129.532 1871.73 124.975 1875.75 124.164 C 1872.17 127.493 1867.45 132.179 1862.87 133.782 L 1867.18 138.539 L 1856.72 143.548 C 1837.67 131.171 1818.41 119.131 1798.94 107.434 L 1796.81 107.002 L 1796.95 105.973 C 1798.67 103.741 1800.34 103.275 1802.91 102.202 z"/>
<path transform="translate(0,0)" fill="rgb(38,39,38)" d="M 1802.91 102.202 C 1810.65 105.418 1864.5 123.67 1868.57 122.913 L 1869.42 124.196 C 1867.63 125.127 1866.99 125.341 1865.11 125.929 L 1864.29 128.54 C 1867.64 129.532 1871.73 124.975 1875.75 124.164 C 1872.17 127.493 1867.45 132.179 1862.87 133.782 C 1853.68 124.63 1817.61 108.767 1803.57 105.741 C 1801.04 105.194 1800.47 106.054 1798.94 107.434 L 1796.81 107.002 L 1796.95 105.973 C 1798.67 103.741 1800.34 103.275 1802.91 102.202 z"/>
<path transform="translate(0,0)" fill="url(#Gradient7)" d="M 1875.75 124.164 C 1893.55 109.753 1917.81 81.4467 1936.37 71.2476 C 1935.44 74.3278 1933.96 78.9379 1932.01 81.395 C 1922.1 93.8777 1881.64 130.751 1868.72 137.801 C 1868.22 138.071 1867.7 138.317 1867.18 138.539 L 1862.87 133.782 C 1867.45 132.179 1872.17 127.493 1875.75 124.164 z"/>
<path transform="translate(0,0)" fill="rgb(38,39,38)" d="M 1863.66 166.19 C 1865.88 163.435 1877.13 156.513 1880.39 157.045 C 1881.06 161.356 1880.46 162.018 1883.06 164.973 C 1876.64 165.169 1870 165.219 1863.66 166.19 z"/>
<path transform="translate(0,0)" fill="rgb(205,206,203)" d="M 1967.06 442.973 L 1968.12 443.521 C 1963.81 455.639 1957.49 462.086 1945.9 467.867 C 1937.45 463.705 1928.91 461.016 1920.16 457.67 C 1915 457.795 1906.3 457.057 1902.09 453.893 L 1902.47 452.436 C 1907.97 449.711 1952.34 449.065 1960.11 450.12 L 1961.32 449.117 C 1962.55 447.047 1964.47 445.088 1965.99 443.207 L 1967.06 442.973 z"/>
<path transform="translate(0,0)" fill="rgb(38,39,38)" d="M 1920.16 457.67 C 1915 457.795 1906.3 457.057 1902.09 453.893 L 1902.47 452.436 C 1907.97 449.711 1952.34 449.065 1960.11 450.12 C 1955.92 453.634 1952.18 455.572 1946.54 455.1 C 1940.58 454.601 1920.87 449.76 1916.56 453.439 C 1916.47 453.517 1916.39 453.605 1916.3 453.689 L 1916.6 455.282 L 1920.16 457.67 z"/>
<path transform="translate(0,0)" fill="rgb(205,206,203)" d="M 1801.42 262.22 C 1789.55 261.596 1777.05 262.343 1765.09 261.884 L 1764.03 260.609 C 1763.94 258.033 1763.48 255.203 1765.01 253.232 C 1769.95 251.771 1802.41 253.198 1810.55 253.015 C 1816 252.751 1824.51 251.673 1826.94 258.169 C 1824.82 266.339 1807.58 264.159 1801.42 262.22 z"/>
<path transform="translate(0,0)" fill="rgb(22,24,22)" d="M 1810.55 253.015 C 1816 252.751 1824.51 251.673 1826.94 258.169 C 1824.82 266.339 1807.58 264.159 1801.42 262.22 C 1806.12 261.986 1813.01 263.305 1816.75 261.431 C 1818.94 258.746 1818.36 259.859 1818.6 255.997 C 1816.16 253.244 1814.81 253.793 1810.55 253.015 z"/>
<path transform="translate(0,0)" fill="rgb(205,206,203)" d="M 1906.65 252.427 C 1911.91 251.867 1918.94 251.405 1924.03 252.81 C 1922.38 254.397 1922.15 256.732 1920.63 258.427 C 1917.45 261.962 1896.17 261.493 1890.74 261.851 C 1882.87 262.06 1875.08 261.943 1867.21 261.602 C 1870.05 258.764 1872.95 256.335 1876.2 253.979 C 1886.34 253.814 1896.52 252.998 1906.65 252.427 z"/>
<path transform="translate(0,0)" fill="rgb(205,206,203)" d="M 1923.91 338.255 L 1924.96 339.457 C 1924.47 342.826 1924.52 344.261 1922.31 346.959 C 1911.04 352.578 1884.58 350.329 1872.21 348.407 L 1868.93 346.784 C 1874.85 341.819 1910.58 346.685 1923.91 338.255 z"/>
<path transform="translate(0,0)" fill="rgb(244,245,244)" d="M 1773.17 344.5 C 1784.75 344.433 1812.6 342.3 1822.07 346.079 L 1822.13 347.27 C 1819.29 349.232 1816.55 349.108 1813.25 349.166 C 1800.06 349.729 1773.47 352.308 1762.04 347.104 L 1761.87 345.956 C 1765.18 344.543 1769.59 344.722 1773.17 344.5 z"/>
<path transform="translate(0,0)" fill="rgb(60,62,60)" d="M 1929.61 331.858 L 1930.58 331.937 L 1932.17 332.42 L 1935.35 332.606 C 1938.31 336.091 1941.59 345.125 1939 349.349 C 1936.11 349.71 1930.29 345.824 1929.42 342.999 L 1929.99 340.992 C 1929.44 337.729 1928.72 335.068 1929.61 331.858 z"/>
<path transform="translate(0,0)" fill="rgb(90,94,90)" d="M 1929.61 331.858 L 1930.58 331.937 L 1932.17 332.42 L 1934.39 333.541 C 1935.3 336.416 1935.87 337.482 1934.89 340.263 L 1933.48 341.775 C 1932.46 341.573 1930.94 341.331 1929.99 340.992 C 1929.44 337.729 1928.72 335.068 1929.61 331.858 z"/>
<path transform="translate(0,0)" fill="rgb(38,39,38)" d="M 1961.32 449.117 C 1959.25 444.386 1955.23 441.709 1951.61 438.179 C 1950.81 436.099 1950.41 434.713 1950.96 432.505 C 1951.16 431.689 1951.83 431.538 1952.52 431.118 C 1958.55 432.563 1960.92 439.476 1965.52 442.866 L 1965.99 443.207 C 1964.47 445.088 1962.55 447.047 1961.32 449.117 z"/>
<path transform="translate(0,0)" fill="rgb(38,39,38)" d="M 1967.06 442.973 C 1967.83 440.405 1967.99 439.988 1967.06 437.463 C 1965.06 436.208 1963.11 434.951 1961.25 433.497 C 1960.86 431.171 1960.87 430.064 1962.33 428.047 C 1963.81 426.009 1966.04 424.298 1968.44 423.619 C 1969.27 423.386 1969.51 423.124 1970.04 422.48 L 1969.92 418.521 L 1970.81 418.551 C 1970.72 425.732 1971.94 435.91 1968.72 442.397 L 1968.51 442.816 C 1968.39 443.057 1968.26 443.289 1968.12 443.521 L 1967.06 442.973 z"/>
<path transform="translate(0,0)" fill="rgb(3,3,3)" d="M 730.861 80.2309 C 743.734 75.3215 739.481 46.982 737.754 35.9549 C 737.195 32.3868 732.978 22.1793 731.626 18.1201 L 729.118 17.564 L 729.06 16.5703 C 732.487 14.4645 738.057 15.6704 742.262 16.2522 C 758.246 15.6172 765.687 19.0548 780.204 19.7389 C 788.483 20.4267 805.185 21.3034 806.516 32.2996 C 805.077 43.9688 805.555 69.0351 804.3 75.6255 C 810.926 81.3392 820.617 80.9386 829.628 80.8514 L 938.865 79.9616 C 946.681 79.9362 970.921 78.939 976.895 79.9336 C 996.778 81.2858 998.437 106.281 1005.24 112.228 C 1001.08 117.511 889.822 113.123 874.479 114.422 C 852.584 116.276 824.209 110.359 801.71 118.259 C 801.301 126.784 798.983 156.374 801.966 162.42 C 812.545 168.641 902.529 165.126 917.939 164.17 C 915.722 164.308 941.316 154.743 943.794 153.844 C 958.841 149.29 977.597 173.598 987.808 180.029 C 990.716 188.763 979.706 203.491 979.821 215.081 C 979.916 224.654 980.056 235.305 979.97 244.855 L 979.878 342.425 C 980.161 398.651 977.929 455.266 976.378 511.522 C 975.374 547.976 958.438 567.847 928.027 586.049 C 922.541 589.333 912.402 597.263 906.123 594.386 C 901.892 589.052 898.149 583.108 894.504 577.338 C 883.547 559.994 865.039 549.132 848.039 538.31 L 852.017 539.95 C 848.635 537.608 838.725 530.061 835.925 529.039 L 836.395 528.272 C 846.181 527.705 853.929 534.653 865.51 533.055 C 873.907 529.913 884.736 530.835 893.704 530.217 C 898.121 529.18 900.485 528.397 904.732 526.785 C 907.596 520.168 911.748 511.038 912.37 504.01 C 915.119 472.946 913.205 440.768 913.429 409.906 L 913.16 279.251 C 912.946 253.348 913.252 228.06 912.019 202.154 C 887.419 198.469 853.938 202.362 828.77 202.404 L 702.518 203.492 C 684.973 203.682 654.905 202.555 638.948 204.793 C 631.44 211.685 635.721 310.807 635.465 328.002 C 634.679 381.013 636.23 434.393 635.193 487.515 C 634.702 512.691 636.801 539.308 632.348 564.074 C 630.574 573.349 576.566 603.667 570.34 601.249 C 569.17 597.748 568.6 596.45 569.052 592.666 L 570.643 591.568 C 568.433 589.724 568.092 589.636 568.241 585.841 C 569.269 559.509 569.822 533.13 570.078 506.798 C 570.978 448.15 570.958 389.491 570.018 330.843 C 569.728 297.78 570.441 267.38 568.572 234.259 C 566.884 204.35 570.457 187.929 564.432 157.061 C 598.931 166.417 649.542 166.297 684.934 165.931 C 700.576 165.769 723.016 166.169 738.346 164.472 C 739.679 148.655 740.156 132.777 739.776 116.908 C 723.409 113.416 696.118 114.621 678.262 114.647 L 597.225 114.626 C 580.029 114.681 563.054 115.82 546.436 111.645 C 543.911 104.556 539.761 94.2134 539.082 87.0808 L 539.067 84.8163 C 549.223 77.3384 570.249 80.555 582.928 80.7303 C 605.314 81.0398 627.519 82.3599 649.968 82.0175 C 675.662 81.1861 701.362 80.5095 727.064 79.9876 L 730.861 80.2309 z"/>
<path transform="translate(0,0)" fill="rgb(244,245,244)" d="M 727.064 79.9876 L 730.861 80.2309 L 735.523 84.198 C 739.045 84.8071 741.241 84.518 743.388 86.737 C 741.858 88.125 738.935 89.6302 736.955 89.8054 C 724.259 90.9289 703.226 91.0963 690.921 90.2247 C 665.666 88.4356 557.487 95.5841 541.948 86.7284 L 539.082 87.0808 L 539.067 84.8163 C 549.223 77.3384 570.249 80.555 582.928 80.7303 C 605.314 81.0398 627.519 82.3599 649.968 82.0175 C 675.662 81.1861 701.362 80.5095 727.064 79.9876 z"/>
<path transform="translate(0,0)" fill="rgb(60,62,60)" d="M 727.064 79.9876 L 730.861 80.2309 L 735.523 84.198 C 733.923 84.2682 728.506 84.3723 727.441 84.4983 C 709.782 86.5862 548.623 81.3669 541.948 86.7284 L 539.082 87.0808 L 539.067 84.8163 C 549.223 77.3384 570.249 80.555 582.928 80.7303 C 605.314 81.0398 627.519 82.3599 649.968 82.0175 C 675.662 81.1861 701.362 80.5095 727.064 79.9876 z"/>
<path transform="translate(0,0)" fill="rgb(244,245,244)" d="M 800.76 83.9709 C 800.923 80.4008 800.372 76.6496 804.3 75.6255 C 810.926 81.3392 820.617 80.9386 829.628 80.8514 L 938.865 79.9616 C 946.681 79.9362 970.921 78.939 976.895 79.9336 C 975.459 81.3225 972.322 84.6886 970.683 85.2633 C 968.003 87.5175 963.864 90.05 960.37 90.2615 C 936.083 91.7314 910.171 90.3647 885.701 90.2464 C 858.521 90.1149 831.873 90.2418 804.762 90.1132 C 801.321 90.0969 798.082 89.7122 795.894 87.223 C 797.098 84.6974 797.483 85.2353 800.76 83.9709 z"/>
<path transform="translate(0,0)" fill="rgb(90,94,90)" d="M 829.628 80.8514 L 938.865 79.9616 C 946.681 79.9362 970.921 78.939 976.895 79.9336 C 975.459 81.3225 972.322 84.6886 970.683 85.2633 C 968.689 83.9017 845.63 84.5502 830.986 84.283 L 829.628 80.8514 z"/>
<path transform="translate(0,0)" fill="rgb(60,62,60)" d="M 800.76 83.9709 C 800.923 80.4008 800.372 76.6496 804.3 75.6255 C 810.926 81.3392 820.617 80.9386 829.628 80.8514 L 830.986 84.283 L 800.76 83.9709 z"/>
<path transform="translate(0,0)" fill="rgb(205,206,203)" d="M 943.743 175.881 C 934.516 174.975 922.177 180.577 915.918 180.378 C 897.798 179.803 797.787 183.304 788.985 179.167 L 788.534 177.702 C 797.387 169.965 927.441 175.267 934.065 168.109 C 934.173 167.992 934.275 167.869 934.38 167.749 C 937.417 172.218 940.488 172.087 943.743 175.881 z"/>
<path transform="translate(0,0)" fill="url(#Gradient6)" d="M 893.704 530.217 C 894.145 531.644 894.332 531.753 895.524 532.681 C 905.149 533.678 917.189 532.665 926.206 528.788 C 929.526 527.361 930.218 522.651 931.438 519.504 L 932.213 524.354 L 934.687 520.668 L 934.133 524.779 C 937.35 528.494 937.107 532.208 937.556 536.856 C 933.822 543.772 930.453 549.156 923.255 552.822 C 921.327 554.669 918.729 556.706 915.997 556.938 C 910.004 557.448 904.154 552.631 899.753 549.094 C 889.261 544.471 881.196 538.603 869.558 536.614 C 867.63 536.46 866.69 536.257 865.142 534.997 L 865.51 533.055 C 873.907 529.913 884.736 530.835 893.704 530.217 z"/>
<path transform="translate(0,0)" fill="rgb(205,206,203)" d="M 869.558 536.614 C 870.284 535.098 870.374 534.008 872.024 533.433 C 879.242 530.92 891.545 533.055 898.263 536.373 C 900.437 537.446 902.153 538.573 903.491 540.66 C 903.906 543.386 903.705 545.064 902.001 547.416 C 901.61 547.955 901.177 548.464 900.741 548.966 L 899.753 549.094 C 889.261 544.471 881.196 538.603 869.558 536.614 z"/>
<path transform="translate(0,0)" fill="rgb(205,206,203)" d="M 922.172 543.789 C 924.488 542.132 926.948 539.865 929.913 539.844 C 929.814 544.558 924.246 547.993 923.255 552.822 C 921.327 554.669 918.729 556.706 915.997 556.938 C 910.004 557.448 904.154 552.631 899.753 549.094 L 900.741 548.966 C 907.408 548.92 916.929 548.384 922.172 543.789 z"/>
<path transform="translate(0,0)" fill="rgb(90,94,90)" d="M 934.133 524.779 C 937.35 528.494 937.107 532.208 937.556 536.856 C 933.822 543.772 930.453 549.156 923.255 552.822 C 924.246 547.993 929.814 544.558 929.913 539.844 C 926.948 539.865 924.488 542.132 922.172 543.789 C 924.434 538.961 925.566 539.35 929.565 536.775 C 932.591 534.827 933.373 528.175 934.133 524.779 z"/>
<path transform="translate(0,0)" fill="rgb(244,245,244)" d="M 742.262 16.2522 C 758.246 15.6172 765.687 19.0548 780.204 19.7389 C 788.483 20.4267 805.185 21.3034 806.516 32.2996 L 801.58 31.9142 C 797.961 32.9523 781.836 44.6565 774.1 47.8769 C 768.712 36.3342 767.012 34.5118 755.92 28.5872 C 750.948 28.5492 741.812 24.9358 738.896 20.6084 C 739.456 17.5919 739.132 18.5719 742.262 16.2522 z"/>
<path transform="translate(0,0)" fill="rgb(60,62,60)" d="M 742.262 16.2522 C 758.246 15.6172 765.687 19.0548 780.204 19.7389 L 781.749 27.2767 C 774.064 26.3597 755.131 20.6095 750.775 22.8689 L 750.778 24.4804 C 752.457 25.8926 754.171 27.262 755.92 28.5872 C 750.948 28.5492 741.812 24.9358 738.896 20.6084 C 739.456 17.5919 739.132 18.5719 742.262 16.2522 z"/>
<path transform="translate(0,0)" fill="rgb(60,62,60)" d="M 780.204 19.7389 C 788.483 20.4267 805.185 21.3034 806.516 32.2996 L 801.58 31.9142 L 803.107 30.814 L 802.556 29.6234 C 797.312 28.0455 787.528 27.6886 781.749 27.2767 L 780.204 19.7389 z"/>
<path transform="translate(0,0)" fill="rgb(244,245,244)" d="M 943.794 153.844 C 958.841 149.29 977.597 173.598 987.808 180.029 C 981.604 189.991 980.241 186.068 970.003 187.347 C 966.254 187.565 964.614 187.786 960.887 186.951 C 954.874 184.135 949.174 179.763 943.743 175.881 C 940.488 172.087 937.417 172.218 934.38 167.749 L 945.631 154.908 L 943.794 153.844 z"/>
<path transform="translate(0,0)" fill="rgb(60,62,60)" d="M 943.794 153.844 C 958.841 149.29 977.597 173.598 987.808 180.029 C 981.604 189.991 980.241 186.068 970.003 187.347 C 966.254 187.565 964.614 187.786 960.887 186.951 C 967.199 185.689 974.151 187.673 977.455 180.515 C 976.261 173.957 955.083 166.615 945.631 154.908 L 943.794 153.844 z"/>
<path transform="translate(0,0)" fill="rgb(38,39,38)" d="M 934.687 520.668 C 934.76 520.613 934.84 520.566 934.904 520.502 C 937.984 517.421 938.073 504.196 938.609 499.597 C 940.008 504.705 938.386 511.253 938.704 516.651 C 939.82 518.448 939.83 518.757 941.989 519.301 C 942.245 513.829 943.272 508.414 944.159 503.016 L 945.22 503.163 C 944.195 514.01 944.128 527.605 937.556 536.856 C 937.107 532.208 937.35 528.494 934.133 524.779 L 934.687 520.668 z"/>
<path transform="translate(0,0)" fill="rgb(205,206,203)" d="M 575.01 167.069 C 588.967 164.648 605.778 173.593 619.994 174.537 C 647.322 176.352 675.498 174.897 702.916 174.974 C 716.68 175.013 732.64 174.082 745.962 177.6 L 746.564 178.644 L 743.082 179.917 C 714.42 182.154 684.92 180.886 656.157 180.87 C 643.183 180.863 629.599 180.011 616.779 182.075 C 612.528 182.759 608.73 184.554 604.885 186.419 C 596.468 177.855 585.7 172.236 575.01 167.069 z"/>
<path transform="translate(0,0)" fill="rgb(38,39,38)" d="M 604 416.349 L 604.742 417.1 L 604.296 506.008 C 604.35 518.929 606.49 547.402 603.781 558.334 C 602.475 563.607 597.601 568.492 594.151 572.528 C 590.165 577.192 583.486 586.572 577.218 587.065 L 576.045 584.759 C 575.985 581.02 576.985 578.009 578.165 574.513 C 578.397 574.162 578.286 574.288 578.569 574.011 C 578.66 573.921 578.754 573.835 578.845 573.745 C 581.821 570.818 583.928 567.159 586.253 563.72 C 595.532 549.998 594.831 544.392 594.877 527.992 C 595.546 532.707 596.257 537.416 597.01 542.118 C 599.25 542.912 600.139 543.475 602.503 542.983 C 604.674 529.099 602.958 512.883 603.051 498.685 C 603.231 471.228 604.057 443.822 604 416.349 z"/>
<path transform="translate(0,0)" fill="rgb(3,3,3)" d="M 1049.19 56.8656 L 1048.26 54.4136 C 1046.09 53.2071 1045.58 53.0188 1044.18 50.9859 L 1044.88 48.9426 C 1048.47 46.1866 1057.85 44.0568 1062.28 44.286 C 1110.54 46.7807 1159.26 49.6621 1207.6 48.7962 C 1222.84 48.5232 1238.09 47.4574 1253.33 47.2395 L 1412.47 46.4106 C 1421.8 46.3768 1468.64 48.2989 1473.43 47.5257 L 1477.23 50.0798 L 1480.8 48.7653 C 1490.39 53.2845 1502.41 72.5615 1508.13 82.0451 C 1487.5 83.4565 1470.78 81.9941 1450.4 81.9423 C 1412.84 82.0569 1375.29 81.9329 1337.74 81.5702 C 1317.61 81.329 1278.24 79.656 1260.09 83.8973 C 1254.3 119.925 1253.44 155.886 1249.78 192.138 C 1249.18 198.114 1248.82 204.158 1248.73 210.165 C 1259.31 213.387 1266.45 213.066 1277.28 213.103 C 1302.53 211.988 1329.87 213.347 1355.3 212.6 C 1366.3 212.277 1382.81 213.062 1393.37 210.947 C 1399.56 209.707 1410.01 204.568 1417.7 202.459 L 1419.36 202.595 C 1426.99 204.328 1447.22 218.759 1455.39 224.004 C 1459.17 227.806 1461.09 230.007 1464.36 234.266 C 1462.72 237.293 1456.78 247.282 1456.45 249.931 C 1454.05 268.825 1454.56 291.336 1454.26 310.435 C 1454 345.221 1452.89 379.995 1450.93 414.726 C 1450.34 425.567 1450.02 441.283 1448.86 451.628 C 1445.62 455.955 1446.54 463.088 1444.3 468.321 C 1444.63 464.701 1444.89 461.044 1445.36 457.44 C 1439.83 472.792 1441.09 494.125 1439.72 510.412 C 1432.37 542.664 1411.85 565.278 1384.44 582.539 C 1377.27 587.052 1368.09 593.305 1359.23 591.258 C 1355.01 590.285 1344.54 573.501 1340.79 569.395 C 1334.71 562.759 1327.75 555.166 1320.72 549.586 C 1308.09 539.553 1279.23 523.099 1271.4 510.003 C 1270.88 509.132 1270.73 508.415 1270.76 507.396 C 1272.8 508.558 1274.66 509.981 1276.54 511.376 L 1277.79 510.457 C 1276.2 508.549 1274.69 506.392 1272.41 505.301 C 1276.3 503.75 1336.09 512.778 1344.66 514.646 L 1345.79 522.879 L 1349.86 523.049 C 1354.78 522.673 1359.53 522.276 1364.39 523.43 C 1361.89 521.191 1360.93 519.629 1360.19 516.355 C 1365.35 509.16 1369.4 502.773 1371.47 494.055 C 1377.82 467.364 1378.37 438.018 1379.38 410.695 L 1382.05 338.272 C 1383.09 310.409 1386.52 273.806 1384.29 246.601 C 1363.3 242.06 1323.59 245.072 1301.03 245.363 C 1282.33 245.605 1261.58 244.131 1243.21 247.167 C 1241.1 262.745 1240.07 278.554 1237.63 294.06 C 1232.24 328.278 1223.83 363.879 1212.95 396.711 C 1191.81 460.507 1168.63 500.243 1118.05 545.69 C 1106.78 555.811 1095.53 565.878 1083.46 575.055 C 1077.29 579.753 1069.9 586.291 1062.89 589.402 C 1059.49 587.8 1057.68 589.453 1055.14 586.032 L 1055.36 584.761 L 1053.56 582.904 C 1057.23 578.752 1058.88 572.938 1061.92 568.253 C 1068.98 557.336 1076.62 546.836 1083.55 535.785 C 1090.49 524.709 1096.69 513.112 1103.46 501.908 C 1108.16 489.05 1116.32 474.274 1120.08 463.225 C 1129.33 436.065 1137.9 407.025 1145.17 379.299 C 1148 368.489 1154.77 347.201 1156.23 337.083 C 1162.32 294.971 1169.42 253.973 1173.09 211.502 C 1173.95 201.542 1174.27 172.72 1175.75 165.132 C 1177.51 156.101 1183.29 89.8129 1179.05 85.7378 C 1169.98 77.0054 1090.85 85.4427 1072.8 81.6313 C 1058.96 78.7111 1060.21 73.1715 1051.42 62.9069 C 1049.14 60.2406 1048.74 59.4533 1049.19 56.8656 z"/>
<path transform="translate(0,0)" fill="rgb(244,245,244)" d="M 1049.19 56.8656 L 1048.26 54.4136 C 1046.09 53.2071 1045.58 53.0188 1044.18 50.9859 L 1044.88 48.9426 C 1048.47 46.1866 1057.85 44.0568 1062.28 44.286 C 1110.54 46.7807 1159.26 49.6621 1207.6 48.7962 C 1222.84 48.5232 1238.09 47.4574 1253.33 47.2395 L 1412.47 46.4106 C 1421.8 46.3768 1468.64 48.2989 1473.43 47.5257 L 1477.23 50.0798 C 1468.71 66.1958 1437.06 62.5696 1421.25 62.886 C 1396.16 63.3879 1370.83 62.5766 1345.72 62.5026 C 1312.97 62.5359 1280.22 62.9117 1247.48 63.6299 C 1225.44 62.9039 1202.29 63.0977 1180.25 63.3178 C 1135.6 62.5526 1098.16 62.9196 1053.75 56.7147 C 1052.9 56.9313 1050.22 56.863 1049.19 56.8656 z"/>
<path transform="translate(0,0)" fill="rgb(38,39,38)" d="M 1049.19 56.8656 L 1048.26 54.4136 C 1046.09 53.2071 1045.58 53.0188 1044.18 50.9859 L 1044.88 48.9426 C 1048.47 46.1866 1057.85 44.0568 1062.28 44.286 C 1110.54 46.7807 1159.26 49.6621 1207.6 48.7962 C 1222.84 48.5232 1238.09 47.4574 1253.33 47.2395 L 1412.47 46.4106 C 1421.8 46.3768 1468.64 48.2989 1473.43 47.5257 C 1470.93 49.6242 1468.18 52.2391 1464.96 52.5144 C 1445.01 54.2226 1423.3 52.882 1403.21 53.0518 L 1177.16 53.9302 C 1140.3 53.9644 1103.1 53.5698 1066.23 53.9971 C 1062.23 54.0435 1057.14 54.4672 1053.75 56.7147 C 1052.9 56.9313 1050.22 56.863 1049.19 56.8656 z"/>
<path transform="translate(0,0)" fill="rgb(38,39,38)" d="M 1373.4 512.898 C 1376.72 515.523 1378.76 519.237 1382.07 521.554 L 1383.33 520.984 L 1383.99 515.563 L 1384.87 515.653 C 1385.8 517.168 1386.72 517.839 1388.19 518.771 C 1390.53 517.618 1390.76 516.681 1392.01 514.384 C 1392.44 509.815 1390.03 503.426 1388.11 499.282 L 1387.92 498.888 C 1389.94 497.516 1393.45 497.333 1395.86 496.899 C 1397.93 494.416 1395.07 488.554 1395.74 485.204 C 1397.05 478.605 1402.23 472.912 1403.41 465.805 C 1408.78 433.337 1405.72 399.927 1407.53 367.165 C 1408.32 352.917 1412.49 338.461 1412.88 324.381 C 1413.33 307.655 1407.45 262.136 1414.61 249.164 C 1416.9 247.489 1416.89 247.487 1419.7 247.854 C 1420.41 248.448 1421.09 249.094 1421.58 249.892 C 1423.26 252.666 1423.47 257.334 1423.46 260.51 C 1423.46 278.92 1420.88 297.191 1420.28 315.567 C 1419.27 346.74 1417.4 377.821 1416.02 408.973 C 1415.29 425.349 1415.62 441.892 1414.26 458.219 C 1413.48 467.535 1412.14 476.634 1409.61 485.641 C 1408.69 493.528 1405.09 499.99 1403.72 507.516 C 1402.91 513.107 1401.43 518.471 1398.1 523.136 C 1395.39 527.537 1392.72 531.969 1389.78 536.222 C 1388.6 534.816 1387.73 534.117 1386.03 533.38 L 1384.19 534.857 L 1383.29 534.998 C 1382.99 535.334 1382.69 535.701 1382.27 535.892 C 1381.46 536.256 1380.24 536.553 1379.4 536.297 C 1374.17 534.697 1371.91 529.046 1369.49 524.568 L 1366.98 524.356 C 1361.22 524.159 1355.57 523.946 1349.86 523.049 C 1354.78 522.673 1359.53 522.276 1364.39 523.43 C 1367.8 521.956 1371.17 515.94 1373.4 512.898 z"/>
<path transform="translate(0,0)" fill="rgb(60,62,60)" d="M 1406.69 462.818 C 1407.96 470.338 1408.74 478.059 1409.61 485.641 C 1408.69 493.528 1405.09 499.99 1403.72 507.516 C 1402.82 505.216 1403.28 502.238 1402.14 500.143 C 1401.23 498.481 1400.01 498.433 1398.34 497.886 C 1402.84 487.213 1403.17 474.096 1406.69 462.818 z"/>
<path transform="translate(0,0)" fill="rgb(109,110,107)" d="M 1394.27 514.996 C 1396.87 516.477 1396.75 518.139 1397.52 520.952 L 1398.1 523.136 C 1395.39 527.537 1392.72 531.969 1389.78 536.222 C 1388.6 534.816 1387.73 534.117 1386.03 533.38 L 1384.19 534.857 L 1383.29 534.998 C 1382.32 533.255 1380.89 531.607 1379.7 529.998 L 1380.07 528.846 L 1386.79 529.183 C 1389.47 524.577 1391.74 519.692 1394.27 514.996 z"/>
<path transform="translate(0,0)" fill="rgb(60,62,60)" d="M 1398.34 497.886 C 1400.01 498.433 1401.23 498.481 1402.14 500.143 C 1403.28 502.238 1402.82 505.216 1403.72 507.516 C 1402.91 513.107 1401.43 518.471 1398.1 523.136 L 1397.52 520.952 C 1396.75 518.139 1396.87 516.477 1394.27 514.996 C 1395.59 509.285 1396.95 503.582 1398.34 497.886 z"/>
<path transform="translate(0,0)" fill="rgb(205,206,203)" d="M 1277.28 213.103 C 1302.53 211.988 1329.87 213.347 1355.3 212.6 C 1366.3 212.277 1382.81 213.062 1393.37 210.947 C 1399.56 209.707 1410.01 204.568 1417.7 202.459 C 1412.7 209.821 1409.6 214.929 1400.5 217.529 L 1393.91 218.841 C 1391.82 221.975 1392.42 221.166 1392.55 225.394 C 1396.29 226.693 1401.46 224.466 1403.74 226.633 C 1399.25 227.358 1358.47 227.008 1352.18 226.996 C 1313.75 226.77 1275.33 226.79 1236.91 227.055 C 1239.79 222.848 1241.64 220.893 1245.17 217.178 C 1253.69 215.689 1275.49 218.376 1282.01 215.763 L 1281.61 214.639 L 1277.28 213.103 z"/>
<path transform="translate(0,0)" fill="rgb(38,39,38)" d="M 1277.28 213.103 C 1302.53 211.988 1329.87 213.347 1355.3 212.6 C 1366.3 212.277 1382.81 213.062 1393.37 210.947 C 1399.56 209.707 1410.01 204.568 1417.7 202.459 C 1412.7 209.821 1409.6 214.929 1400.5 217.529 C 1366.18 216.571 1330.59 218.225 1296.18 217.798 C 1283.19 217.636 1257.66 218.831 1245.17 217.178 C 1253.69 215.689 1275.49 218.376 1282.01 215.763 L 1281.61 214.639 L 1277.28 213.103 z"/>
<path transform="translate(0,0)" fill="rgb(38,39,38)" d="M 1110.58 500.344 C 1115.5 496.259 1121 471.78 1126.58 467.757 C 1128.6 466.301 1134.14 467.643 1138.75 465.483 C 1143.65 459.192 1135.28 461.559 1143.18 453.642 C 1143.69 450.022 1142.62 449.619 1140.57 445.915 L 1141.38 445.176 L 1144.42 448.848 L 1146.54 444.546 C 1147.71 443.973 1147.92 443.944 1148.77 442.982 L 1145.17 436.544 L 1145.57 435.283 C 1147.71 437.437 1148.9 438.539 1149.83 441.555 C 1151.16 437.238 1151.49 436.194 1150.55 431.792 L 1150.47 431.437 L 1151.35 430.204 L 1153.42 432.888 C 1156.01 428.591 1154.02 423.864 1155.41 421.774 C 1164.71 407.802 1169.4 390.428 1174.77 374.412 C 1179 361.824 1179.34 344.515 1184.73 331.838 L 1186.88 331.707 C 1187.89 334.804 1189.13 339.103 1190.66 341.873 C 1186.69 353.989 1184.6 381.803 1178.56 390.466 C 1172.7 403.513 1170.72 420.224 1163.63 432.387 C 1160.65 437.508 1146.71 469.741 1144.96 471.275 C 1141.23 479.055 1136.74 488.809 1131.44 495.489 L 1130.67 490.775 L 1129.21 489.849 C 1125.44 492.512 1123.69 497.636 1120.19 500.94 C 1115.66 506.737 1109.44 513.182 1106.15 519.69 C 1103 523.825 1099.96 528.284 1096.54 532.192 C 1098.23 521.755 1104.72 509.068 1110.58 500.344 z"/>
<path transform="translate(0,0)" fill="rgb(60,62,60)" d="M 1176.6 376.872 C 1177.48 380.899 1178.02 386.277 1178.56 390.466 C 1172.7 403.513 1170.72 420.224 1163.63 432.387 C 1160.65 437.508 1146.71 469.741 1144.96 471.275 C 1144.78 471.19 1144.61 471.1 1144.44 471.021 C 1141.5 469.701 1139.75 469.975 1136.78 471.063 C 1137.84 467.919 1141.53 466.645 1142.7 463.355 C 1143.16 462.074 1141.4 460.281 1141.54 459.073 C 1141.64 458.205 1150.56 443.167 1151.98 439.993 C 1161.23 419.225 1168.13 397.9 1176.6 376.872 z"/>
<path transform="translate(0,0)" fill="rgb(90,94,90)" d="M 1136.78 471.063 C 1139.75 469.975 1141.5 469.701 1144.44 471.021 C 1144.61 471.1 1144.78 471.19 1144.96 471.275 C 1141.23 479.055 1136.74 488.809 1131.44 495.489 L 1130.67 490.775 L 1129.21 489.849 C 1125.44 492.512 1123.69 497.636 1120.19 500.94 C 1121.97 490.226 1132.85 481.393 1136.78 471.063 z"/>
<path transform="translate(0,0)" fill="rgb(38,39,38)" d="M 1224.53 82.5234 L 1227.92 82.5189 C 1223.44 86.099 1220.69 86.945 1219.92 92.7689 C 1218.8 101.245 1220.1 110.653 1219.22 118.983 C 1217.29 137.17 1215.85 154.62 1215.6 172.936 C 1215.47 182.794 1210.29 194.976 1209.94 205.06 C 1209.15 218.455 1210.1 232.099 1208.95 245.507 C 1208.92 246.031 1205.26 249.366 1204.64 249.763 C 1203.92 256.359 1203.34 265.843 1202.72 272.137 C 1201.87 280.813 1199.5 289.608 1198.44 297.776 C 1196.27 314.581 1197.36 325.825 1190.66 341.873 C 1189.13 339.103 1187.89 334.804 1186.88 331.707 C 1188.03 333.231 1188.9 334.645 1189.9 336.263 C 1191.15 335.888 1192.65 335.314 1192.78 333.743 C 1195.25 305.035 1201.63 277.245 1203.33 248.514 C 1203.31 248.814 1207.5 245.188 1207.81 244.906 C 1207.84 239.952 1208.26 231.37 1206.92 226.921 C 1205.75 226.18 1202.91 224.063 1202.73 222.725 C 1201.93 213.077 1199.65 199.202 1201.13 189.836 C 1203.93 176.419 1207.84 165.406 1208.25 151.497 C 1208.83 131.545 1219.63 108.237 1213.08 88.2955 C 1219.02 87.9349 1220.38 86.4427 1224.53 82.5234 z"/>
<path transform="translate(0,0)" fill="rgb(244,245,244)" d="M 1419.36 202.595 C 1426.99 204.328 1447.22 218.759 1455.39 224.004 C 1452.38 230.587 1448.54 230.758 1442.06 232.421 C 1440.23 233.001 1432.76 237.944 1430.67 239.273 C 1421.76 229.566 1416.71 227.934 1403.74 226.633 C 1401.46 224.466 1396.29 226.693 1392.55 225.394 C 1392.42 221.166 1391.82 221.975 1393.91 218.841 L 1400.5 217.529 C 1409.6 214.929 1412.7 209.821 1417.7 202.459 L 1419.36 202.595 z"/>
<path transform="translate(0,0)" fill="rgb(90,94,90)" d="M 1419.36 202.595 C 1426.99 204.328 1447.22 218.759 1455.39 224.004 C 1452.38 230.587 1448.54 230.758 1442.06 232.421 C 1444.37 230.776 1444.94 230.283 1446.85 228.188 C 1446.42 219.551 1427.33 219.407 1419.36 202.595 z"/>
<path transform="translate(0,0)" fill="rgb(38,39,38)" d="M 1180.25 63.3178 C 1202.29 63.0977 1225.44 62.9039 1247.48 63.6299 C 1245.41 69.4624 1233.02 79.428 1227.92 82.5189 L 1224.53 82.5234 C 1220.38 86.4427 1219.02 87.9349 1213.08 88.2955 C 1206.95 83.0725 1202.72 78.2697 1197.3 72.3872 C 1194.58 69.2479 1195.44 70.3404 1194.98 66.0794 C 1194.54 61.8833 1184.52 66.1406 1180.25 63.3178 z"/>
<path transform="translate(0,0)" fill="rgb(90,94,90)" d="M 1197.3 72.3872 C 1197.95 71.9164 1198.74 71.3514 1199.65 70.6925 C 1210.28 71.0723 1224.61 70.4335 1234.79 70.3879 C 1230.96 76.1753 1229.57 77.7088 1224.53 82.5234 C 1220.38 86.4427 1219.02 87.9349 1213.08 88.2955 C 1206.95 83.0725 1202.72 78.2697 1197.3 72.3872 z"/>
<path transform="translate(0,0)" fill="rgb(38,39,38)" d="M 1277.79 510.457 C 1276.2 508.549 1274.69 506.392 1272.41 505.301 C 1276.3 503.75 1336.09 512.778 1344.66 514.646 L 1345.79 522.879 C 1334.19 520.165 1322.5 518.313 1310.75 516.445 C 1309.29 517.856 1308 518.929 1307.56 520.994 C 1298.35 520.505 1286.34 515.286 1278.65 510.411 L 1277.79 510.457 z"/>
<path transform="translate(0,0)" fill="rgb(153,154,150)" d="M 1278.65 510.411 C 1286.63 507.939 1302.47 514.021 1310.75 516.445 C 1309.29 517.856 1308 518.929 1307.56 520.994 C 1298.35 520.505 1286.34 515.286 1278.65 510.411 z"/>
<path transform="translate(0,0)" fill="rgb(153,154,150)" d="M 1120.19 500.94 C 1123.69 497.636 1125.44 492.512 1129.21 489.849 L 1130.67 490.775 L 1131.44 495.489 C 1126.71 500.883 1119.51 517.548 1113.79 520.114 C 1104.05 534.303 1093.65 547.699 1082.01 560.377 C 1078.79 562.765 1075.49 565.986 1071.19 565.446 C 1080.55 555.506 1089.45 543.847 1096.54 532.192 C 1099.96 528.284 1103 523.825 1106.15 519.69 C 1109.44 513.182 1115.66 506.737 1120.19 500.94 z"/>
<path transform="translate(0,0)" fill="rgb(109,110,107)" d="M 1120.19 500.94 C 1123.69 497.636 1125.44 492.512 1129.21 489.849 L 1130.67 490.775 L 1131.44 495.489 C 1126.71 500.883 1119.51 517.548 1113.79 520.114 C 1113.18 517.904 1121.01 507.18 1122.39 503.581 C 1118.97 504.225 1111.55 517.084 1106.71 519.435 C 1106.52 519.524 1106.34 519.605 1106.15 519.69 C 1109.44 513.182 1115.66 506.737 1120.19 500.94 z"/>
<path transform="translate(0,0)" fill="rgb(244,245,244)" d="M 1310.75 516.445 C 1322.5 518.313 1334.19 520.165 1345.79 522.879 L 1349.86 523.049 C 1355.57 523.946 1361.22 524.159 1366.98 524.356 C 1366.83 524.447 1366.69 524.54 1366.54 524.629 C 1363.22 526.649 1358.22 526.38 1355.69 529.249 C 1355.91 531.952 1357.15 532.761 1359.2 534.492 L 1359.64 534.862 C 1357.57 536.679 1355.59 537.635 1353.04 538.651 C 1340.2 530.755 1321.97 525.639 1307.56 520.994 C 1308 518.929 1309.29 517.856 1310.75 516.445 z"/>
<path transform="translate(0,0)" fill="rgb(60,62,60)" d="M 1366.98 524.356 L 1369.49 524.568 C 1371.91 529.046 1374.17 534.697 1379.4 536.297 C 1380.24 536.553 1381.46 536.256 1382.27 535.892 C 1382.69 535.701 1382.99 535.334 1383.29 534.998 L 1384.19 534.857 C 1382.12 539.367 1370.83 542.655 1366.09 545.678 L 1364.92 544.753 C 1360.85 542.88 1356.84 541.046 1353.04 538.651 C 1355.59 537.635 1357.57 536.679 1359.64 534.862 L 1359.2 534.492 C 1357.15 532.761 1355.91 531.952 1355.69 529.249 C 1358.22 526.38 1363.22 526.649 1366.54 524.629 C 1366.69 524.54 1366.83 524.447 1366.98 524.356 z"/>
<path transform="translate(0,0)" fill="rgb(153,154,150)" d="M 1359.64 534.862 C 1361.96 536.442 1364.04 537.723 1366.69 538.716 L 1367.36 540.348 C 1366.6 541.831 1365.92 543.416 1364.92 544.753 C 1360.85 542.88 1356.84 541.046 1353.04 538.651 C 1355.59 537.635 1357.57 536.679 1359.64 534.862 z"/>
<path transform="translate(0,0)" fill="rgb(205,206,203)" d="M 1384.19 534.857 L 1386.03 533.38 C 1387.73 534.117 1388.6 534.816 1389.78 536.222 C 1386.4 541.706 1382.31 545.954 1377.15 549.788 L 1366.09 545.678 C 1370.83 542.655 1382.12 539.367 1384.19 534.857 z"/>
<path transform="translate(0,0)" fill="rgb(90,94,90)" d="M 1071.19 565.446 C 1075.49 565.986 1078.79 562.765 1082.01 560.377 C 1080.14 568.055 1071.76 573.586 1065.38 577.492 C 1062.68 579.149 1059.87 580.567 1057 581.91 C 1060.76 576.428 1065.88 569.482 1071.19 565.446 z"/>
<path transform="translate(0,0)" fill="rgb(3,3,3)" d="M 1545.82 217.136 L 1544.16 213.52 C 1542.47 213.599 1542.18 213.481 1540.57 212.955 L 1539.91 211.131 C 1543.26 203.151 1555.34 203.888 1563.14 203.927 C 1580.37 204.014 1596.64 204.466 1613.23 198.8 C 1619.47 196.666 1625.56 190.568 1631.83 190.2 C 1645.04 195.91 1652.05 199.07 1662.33 209.707 C 1663.95 211.318 1667.88 214.826 1667.61 217.092 C 1665.33 236.744 1663.72 255.444 1663.69 275.29 C 1658.67 283.108 1664.76 401.473 1658.76 418.85 C 1658.74 418.921 1658.05 475.382 1658.53 479.719 L 1659.51 480.201 C 1661.06 477.428 1661.01 476.399 1661.28 473.194 C 1660.77 481.906 1657.28 485.177 1663.5 490.896 C 1664.52 494.543 1665.31 498.306 1667.63 501.379 C 1677.59 509.09 1696.5 513.474 1708.85 514.973 C 1709.65 518.743 1711.11 520.212 1713.92 522.656 C 1723.01 525.113 1732.07 527.576 1741.41 528.926 C 1767.37 532.679 1794.27 533.034 1820.46 533.917 C 1878.43 535.871 1955.2 539.554 2010.85 523.669 C 2012.32 520.992 2013.33 517.943 2014.47 515.109 C 2019.83 514.212 2025.21 513.369 2030.59 512.579 L 2031.93 514.687 C 2035.07 512.818 2033.28 511.874 2038.43 510.278 L 2038.77 511.34 L 2035.96 512.607 C 2035.8 514.36 2035.95 514.424 2036.97 515.885 L 2038.98 513.976 C 2041.16 514.259 2040.72 513.851 2041.77 515.151 C 2039.7 516.005 2038.9 515.856 2038.2 517.438 C 2042.76 524.284 2033.8 528.924 2029.71 534.71 L 1991.37 588.218 C 1956.85 597.847 1824.17 589.123 1783.13 585.326 C 1767.74 583.902 1736.4 578.437 1721.98 571.663 C 1713.4 567.633 1702.41 560.851 1694.52 555.822 C 1687.1 551.093 1654.09 523.016 1648.89 522.534 L 1649.34 525.494 C 1632.73 530.82 1615.62 582.572 1595.54 589.418 C 1586.16 592.614 1550.98 564.063 1548.66 555.473 C 1549.27 549.564 1553.76 545.422 1557.76 541.347 L 1557.79 541.649 C 1568.03 533.242 1586.98 513.104 1594.99 507.582 C 1601.98 491.356 1599.98 459.561 1599.96 441.16 L 1599.88 363.263 L 1599.98 287.175 C 1600.01 271.545 1600.4 253.231 1599.34 237.806 C 1585.05 236.437 1568.42 236.689 1554.52 234.336 C 1550.26 229.108 1547.85 225.357 1545.32 219.052 L 1541.56 218.886 L 1541.47 217.491 L 1545.82 217.136 z"/>
<path transform="translate(0,0)" fill="rgb(22,24,22)" d="M 1607.58 507.281 C 1608.67 494.045 1609.67 480.53 1608.93 467.249 C 1608.37 456.983 1606.56 446.635 1606.38 436.377 C 1606.22 427.742 1608.75 419.164 1608.82 410.495 C 1609.02 386.004 1607.11 361.414 1607.01 336.895 C 1606.93 314.56 1606.65 292.083 1607.21 269.759 C 1607.4 262.453 1609.52 251.624 1609.07 245.023 C 1608.99 243.736 1607.09 240.73 1606.45 239.412 C 1617.13 242.251 1621.83 237.681 1632.52 238.117 L 1633.52 239.677 C 1630.98 241.978 1626.67 242.599 1623.43 243.486 C 1624.63 246.118 1630.25 248.793 1632.78 250.366 C 1635.87 273.483 1634.06 297.076 1634.24 320.35 L 1634.31 483.962 C 1633.37 491.682 1630.82 495.793 1626.13 501.8 C 1629.16 503.229 1631.99 504.378 1634.17 507.027 L 1630.43 508.785 C 1623.38 514.202 1612.09 522.551 1603.28 523.429 L 1601.24 522.586 C 1600.53 519.336 1602.71 517.362 1602.53 514.448 C 1603.66 511.849 1605.84 509.515 1607.58 507.281 z"/>
<path transform="translate(0,0)" fill="rgb(38,39,38)" d="M 1630.43 508.785 C 1627.49 506.943 1623.91 506.943 1621.32 504.471 C 1622.69 502.516 1623.89 502.52 1626.13 501.8 C 1629.16 503.229 1631.99 504.378 1634.17 507.027 L 1630.43 508.785 z"/>
<path transform="translate(0,0)" fill="rgb(244,245,244)" d="M 1653.52 509.535 C 1655.43 506.962 1655.63 506.56 1658.93 506.099 C 1669.08 504.683 1700.61 519.955 1713.92 522.656 C 1723.01 525.113 1732.07 527.576 1741.41 528.926 C 1767.37 532.679 1794.27 533.034 1820.46 533.917 C 1878.43 535.871 1955.2 539.554 2010.85 523.669 C 2012.32 520.992 2013.33 517.943 2014.47 515.109 C 2019.83 514.212 2025.21 513.369 2030.59 512.579 L 2031.93 514.687 C 2035.07 512.818 2033.28 511.874 2038.43 510.278 L 2038.77 511.34 L 2035.96 512.607 C 2035.8 514.36 2035.95 514.424 2036.97 515.885 C 2035.57 517.801 2034.53 519.081 2032.11 519.572 C 2032.04 519.588 2031.96 519.586 2031.88 519.593 C 2021.7 529.132 2005.63 539.147 1992.48 543.879 C 1948.01 559.883 1775.79 550.237 1728.86 539.3 C 1703.02 533.275 1677.53 520.737 1653.52 509.535 z"/>
<path transform="translate(0,0)" fill="rgb(60,62,60)" d="M 2014.47 515.109 C 2019.83 514.212 2025.21 513.369 2030.59 512.579 L 2031.93 514.687 C 2035.07 512.818 2033.28 511.874 2038.43 510.278 L 2038.77 511.34 L 2035.96 512.607 C 2035.8 514.36 2035.95 514.424 2036.97 515.885 C 2035.57 517.801 2034.53 519.081 2032.11 519.572 C 2032.04 519.588 2031.96 519.586 2031.88 519.593 C 2028.94 518.043 2027.04 518.097 2023.86 519.102 C 2019.49 520.484 2015.17 522.148 2010.85 523.669 C 2012.32 520.992 2013.33 517.943 2014.47 515.109 z"/>
<path transform="translate(0,0)" fill="rgb(22,24,22)" d="M 1545.82 217.136 L 1544.16 213.52 C 1542.47 213.599 1542.18 213.481 1540.57 212.955 L 1539.91 211.131 C 1543.26 203.151 1555.34 203.888 1563.14 203.927 C 1580.37 204.014 1596.64 204.466 1613.23 198.8 C 1619.47 196.666 1625.56 190.568 1631.83 190.2 C 1645.04 195.91 1652.05 199.07 1662.33 209.707 L 1662.12 210.234 C 1661.24 212.507 1661.19 213.002 1661.13 215.415 C 1658.65 216.278 1659.72 216.204 1657.09 215.625 C 1648.19 218.072 1638.22 223.152 1630.32 218.961 C 1624.71 217.428 1622.91 216.877 1617.14 216.885 C 1608.31 218.187 1556.59 217.346 1545.82 217.136 z"/>
<path transform="translate(0,0)" fill="rgb(244,245,244)" d="M 1631.83 190.2 C 1645.04 195.91 1652.05 199.07 1662.33 209.707 L 1662.12 210.234 C 1661.24 212.507 1661.19 213.002 1661.13 215.415 C 1658.65 216.278 1659.72 216.204 1657.09 215.625 C 1648.19 218.072 1638.22 223.152 1630.32 218.961 C 1626 213.547 1623.1 216.66 1619.07 212.679 C 1621.84 204.753 1627.06 205.879 1628.82 196.342 L 1628.89 195.94 L 1629.64 194.051 L 1629.61 191.793 L 1631.83 190.2 z"/>
<path transform="translate(0,0)" fill="url(#Gradient5)" d="M 1631.83 190.2 C 1645.04 195.91 1652.05 199.07 1662.33 209.707 L 1662.12 210.234 C 1661.24 212.507 1661.19 213.002 1661.13 215.415 C 1658.65 216.278 1659.72 216.204 1657.09 215.625 C 1656.23 214.154 1632.38 195.879 1629.64 194.051 L 1629.61 191.793 L 1631.83 190.2 z"/>
<path transform="translate(0,0)" fill="rgb(205,206,203)" d="M 1628.89 195.94 L 1628.82 196.342 C 1627.06 205.879 1621.84 204.753 1619.07 212.679 C 1623.1 216.66 1626 213.547 1630.32 218.961 C 1624.71 217.428 1622.91 216.877 1617.14 216.885 C 1603.58 214.549 1560.5 218.292 1550.17 215.351 L 1550.11 214.181 C 1558.59 209.651 1599.85 214.519 1610.99 210.572 C 1616.61 208.581 1624.35 200.404 1628.89 195.94 z"/>
<path transform="translate(0,0)" fill="rgb(38,39,38)" d="M 1667.63 501.379 C 1677.59 509.09 1696.5 513.474 1708.85 514.973 C 1709.65 518.743 1711.11 520.212 1713.92 522.656 C 1700.61 519.955 1669.08 504.683 1658.93 506.099 C 1655.63 506.56 1655.43 506.962 1653.52 509.535 C 1651.12 507.917 1649.22 505.968 1646.11 506.557 C 1640.74 507.574 1624.08 520.568 1619.54 524.747 C 1617.66 526.467 1617.35 528.136 1614.83 529.24 C 1609.51 533.741 1601.68 542.491 1595.08 544.6 C 1591.68 542.362 1586.45 542.713 1582.45 542.532 C 1576.88 545.027 1571.5 547.134 1565.62 548.833 C 1566.65 546.748 1586.41 529.621 1590.19 526.065 C 1592.18 524.198 1594.2 527.657 1597.26 527.753 C 1598.93 526.674 1599.04 526.243 1599.75 524.478 L 1598.05 521.18 C 1598.13 517.895 1600.28 516.714 1602.53 514.448 C 1602.71 517.362 1600.53 519.336 1601.24 522.586 L 1603.28 523.429 C 1612.09 522.551 1623.38 514.202 1630.43 508.785 L 1634.17 507.027 C 1636.5 508.682 1640.12 502.886 1645.13 503.04 C 1652.25 504.088 1660.34 501.538 1667.63 501.379 z"/>
<path transform="translate(0,0)" fill="rgb(153,154,150)" d="M 1582.45 542.532 C 1591.41 538.438 1601.26 530.311 1610.58 527.98 C 1612.64 527.466 1613.11 528.179 1614.83 529.24 C 1609.51 533.741 1601.68 542.491 1595.08 544.6 C 1591.68 542.362 1586.45 542.713 1582.45 542.532 z"/>
<path transform="translate(0,0)" fill="rgb(205,206,203)" d="M 1582.45 542.532 C 1586.45 542.713 1591.68 542.362 1595.08 544.6 C 1585.14 551.013 1574.24 555.88 1562.05 553.205 C 1560.55 552.876 1560.44 552.636 1559.44 551.502 C 1561.1 549.851 1563.43 549.43 1565.62 548.833 C 1571.5 547.134 1576.88 545.027 1582.45 542.532 z"/>
<path transform="translate(0,0)" fill="rgb(3,3,3)" d="M 773.223 315.897 C 784.188 301.936 787.165 284.762 795.149 271.009 C 805.807 252.652 809.972 233.128 819.128 215.692 C 831.721 210.647 849.057 222.768 858.636 230.18 L 860.599 231.281 C 866.983 233.588 877.563 235.261 879.761 239.935 L 879.411 245.266 C 871.149 256.523 864.688 262.133 855.719 271.44 C 848.964 278.45 819.352 303.088 816.929 309.761 C 821.366 313.992 848.744 310.224 856.509 311.049 L 860.889 311 C 864.647 311.296 870.156 314.383 872.167 317.536 C 876.689 324.623 892.381 336.421 888.119 345.548 C 862.585 349.64 828.23 344.01 801.653 349.055 C 801.989 362.474 801.579 385.563 800.924 399.086 C 806.74 405.101 804.785 401.531 811.159 404.741 C 828.62 405.088 854.362 404.326 872.754 403.725 C 874.355 404.72 875.704 405.559 876.802 406.241 C 883.845 410.324 891.85 421.828 896.423 428.055 C 897.872 430.029 899.801 429.865 900.811 432.084 C 868.594 436.672 837.989 430.756 806.357 435.882 C 803.832 436.291 802.297 441.683 802.281 443.872 C 802.813 465.789 802.551 491.982 803.301 513.421 C 804.551 549.153 797.275 552.675 766.05 567.229 C 760.097 570.003 749.536 580.148 742.244 577.212 C 740.399 561.293 741.255 546.174 740.957 530.477 C 740.402 501.256 742.086 466.585 738.674 437.956 C 729.268 437.914 718.269 437.243 708.653 437.079 C 695.631 436.858 674.754 438.074 662.765 435.612 C 655.822 429.543 644.131 417.438 650.279 407.571 C 653.376 405.607 654.375 405.761 657.979 406.077 C 667.236 402.333 711.521 408.878 723.776 406.001 C 723.243 406.126 739.445 404.893 738.845 404.802 C 738.669 402.608 740.88 393.817 740.991 389.192 C 741.321 375.562 741.234 361.958 741.314 348.333 C 718.454 342.29 694.33 349.096 666.924 342.802 C 663.728 333.927 655.947 326.601 657.777 316.32 C 664.106 310.348 701.393 313.386 710.794 310.011 C 712.257 309.486 712.105 308.885 712.702 307.212 C 706.167 278.835 686.754 249.956 670.608 225.845 L 671.279 224.625 C 675.319 223.375 678.34 224.579 682.796 224.719 C 704.83 225.897 724.004 235.553 741.564 248.266 C 744.139 250.129 751.339 254.996 753.29 256.987 C 762.544 265.491 764.623 267.559 766.167 279.903 C 754.12 292.009 729.518 302.623 725.288 309.5 L 725.724 311.012 C 729.901 312.792 737.435 310.755 742.903 311.584 C 753.508 313.192 762.462 315.081 773.223 315.897 z"/>
<path transform="translate(0,0)" fill="rgb(205,206,203)" d="M 657.979 406.077 C 667.236 402.333 711.521 408.878 723.776 406.001 C 723.243 406.126 739.445 404.893 738.845 404.802 L 741.297 411.116 L 745.525 412.382 L 746.287 413.943 C 742.772 417.793 734.423 417.734 729.457 417.959 C 713.002 418.707 669.925 418.943 655.941 413.944 C 656.761 411.699 657.416 408.469 657.979 406.077 z"/>
<path transform="translate(0,0)" fill="url(#Gradient4)" d="M 657.979 406.077 C 667.236 402.333 711.521 408.878 723.776 406.001 C 723.243 406.126 739.445 404.893 738.845 404.802 L 741.297 411.116 C 717.252 411.752 693.747 411.32 669.729 410.889 C 665.041 410.804 659.951 411.362 655.941 413.944 C 656.761 411.699 657.416 408.469 657.979 406.077 z"/>
<path transform="translate(0,0)" fill="rgb(244,245,244)" d="M 811.159 404.741 C 828.62 405.088 854.362 404.326 872.754 403.725 C 874.355 404.72 875.704 405.559 876.802 406.241 C 874.545 408.496 872.004 410.589 871.073 413.6 C 867.758 415.674 863.088 415.866 859.298 416.061 C 851.246 416.475 799.476 418.313 795.156 414.427 L 795.475 412.454 L 798.263 411.108 C 798.78 410.432 799.317 409.771 799.871 409.125 C 803.469 404.971 805.74 405.155 811.159 404.741 z"/>
<path transform="translate(0,0)" fill="rgb(90,94,90)" d="M 811.159 404.741 C 828.62 405.088 854.362 404.326 872.754 403.725 C 874.355 404.72 875.704 405.559 876.802 406.241 C 874.545 408.496 872.004 410.589 871.073 413.6 C 870.931 411.246 870.524 409.026 870.04 406.721 C 867.384 408.316 864.459 409.809 861.367 410.269 C 856.411 411.006 850.601 410.198 845.555 410.192 C 829.911 410.173 813.819 409.562 798.263 411.108 C 798.78 410.432 799.317 409.771 799.871 409.125 C 803.469 404.971 805.74 405.155 811.159 404.741 z"/>
<path transform="translate(0,0)" fill="rgb(205,206,203)" d="M 805.427 319.145 C 805.495 314.111 806.206 310.788 811.156 308.214 C 815.171 307.863 813.734 307.456 816.929 309.761 C 821.366 313.992 848.744 310.224 856.509 311.049 L 860.889 311 L 863.478 313.46 C 862.379 318.255 859.371 320.129 855.54 323.699 C 846.57 324.237 837.596 324.702 828.618 325.093 C 823.643 324.912 797.381 325.041 794.99 321.531 C 797.017 319.314 800.245 319.423 803.33 319.099 L 805.427 319.145 z"/>
<path transform="translate(0,0)" fill="rgb(22,24,22)" d="M 805.427 319.145 C 805.495 314.111 806.206 310.788 811.156 308.214 C 815.171 307.863 813.734 307.456 816.929 309.761 C 821.366 313.992 848.744 310.224 856.509 311.049 C 853.948 314.332 852.833 315.757 849.709 318.548 C 834.95 318.886 820.189 319.085 805.427 319.145 z"/>
<path transform="translate(0,0)" fill="rgb(60,62,60)" d="M 813.05 270.869 C 815.651 273.506 815.095 274.056 815.918 278.086 L 813.558 281.942 C 812.167 287.512 811.69 289.487 808.829 294.464 C 804.214 302.492 790.436 308.951 794.627 317.671 C 797.171 319.5 800.167 319.116 803.33 319.099 C 800.245 319.423 797.017 319.314 794.99 321.531 C 797.381 325.041 823.643 324.912 828.618 325.093 C 818.505 328.354 797.386 330.503 787.245 328.033 C 784.746 326.081 785.319 327.052 784.588 324.223 C 785.52 320.888 788.22 319.127 790.896 316.864 C 790.57 312.68 789.711 314.932 786.617 310.894 C 790.507 307.092 794.545 297.174 799.979 290.744 C 801.666 288.424 802.956 286.396 804.466 283.981 C 807.261 280.684 810.741 274.717 813.05 270.869 z"/>
<path transform="translate(0,0)" fill="rgb(90,94,90)" d="M 813.05 270.869 C 815.651 273.506 815.095 274.056 815.918 278.086 L 813.558 281.942 C 810.297 285.044 805.178 291.707 802.494 293.073 C 800.483 291.99 801.118 292.618 799.979 290.744 C 801.666 288.424 802.956 286.396 804.466 283.981 C 807.261 280.684 810.741 274.717 813.05 270.869 z"/>
<path transform="translate(0,0)" fill="rgb(22,24,22)" d="M 682.796 224.719 C 704.83 225.897 724.004 235.553 741.564 248.266 C 744.139 250.129 751.339 254.996 753.29 256.987 C 749.147 263.979 755.368 265.356 751.184 267.836 C 748.861 259.751 715.271 240.373 706.84 236.357 C 705.336 234.868 693.786 229.619 691.226 228.605 C 686.804 226.852 686.8 226.788 683.063 228.331 L 682.154 227.703 L 682.796 224.719 z"/>
<path transform="translate(0,0)" fill="rgb(244,245,244)" d="M 706.84 236.357 C 715.271 240.373 748.861 259.751 751.184 267.836 C 749.818 268.016 748.45 268.174 747.08 268.309 C 732.368 269.726 717.45 253.201 705.928 243.689 C 705.56 241.817 705.243 239.935 704.978 238.045 L 706.84 236.357 z"/>
<path transform="translate(0,0)" fill="rgb(38,39,38)" d="M 830.42 236.477 C 834.242 236.64 833.411 236.049 835.843 238.08 C 835.674 242.454 833.782 244.177 834.745 247.087 L 837.686 248.849 L 838.006 250.305 C 833.801 253.912 826.668 261.853 823.382 264.274 L 815.918 278.086 C 815.095 274.056 815.651 273.506 813.05 270.869 L 812.961 270.231 C 816.828 252.339 820.991 251.826 830.42 236.477 z"/>
<path transform="translate(0,0)" fill="rgb(60,62,60)" d="M 812.961 270.231 C 816.04 267.316 821.203 255.587 827.941 251.971 C 828.482 254.267 824.567 261.668 823.382 264.274 L 815.918 278.086 C 815.095 274.056 815.651 273.506 813.05 270.869 L 812.961 270.231 z"/>
<path transform="translate(0,0)" fill="rgb(22,24,22)" d="M 804.466 283.981 C 804.215 276.052 816.23 244.981 822.444 238.587 C 824.664 236.304 827.277 236.718 830.42 236.477 C 820.991 251.826 816.828 252.339 812.961 270.231 L 813.05 270.869 C 810.741 274.717 807.261 280.684 804.466 283.981 z"/>
<path transform="translate(0,0)" fill="rgb(153,154,150)" d="M 824.816 221.758 C 839.06 223.116 845.373 226.373 858.636 230.18 L 860.599 231.281 C 861.836 234.183 862.065 233.478 861.407 236.028 C 853.098 240.23 831.216 228.005 824.816 221.758 z"/>
<path transform="translate(0,0)" fill="rgb(153,154,150)" d="M 683.063 228.331 C 686.8 226.788 686.804 226.852 691.226 228.605 C 693.786 229.619 705.336 234.868 706.84 236.357 L 704.978 238.045 C 705.243 239.935 705.56 241.817 705.928 243.689 C 698.464 238.338 690.839 233.217 683.063 228.331 z"/>
<path transform="translate(0,0)" fill="rgb(205,206,203)" d="M 670.2 319.468 C 702.702 319.235 736.109 317.547 768.523 318.881 C 770.817 318.975 772.22 319.258 773.793 320.949 C 772.413 323.425 771.405 323.597 768.83 324.799 C 738.967 325.654 709.084 325.471 679.234 324.249 C 675.51 324.069 667.798 324.293 665.25 321.488 L 665.93 320.172 L 670.2 319.468 z"/>
<path transform="translate(0,0)" fill="rgb(3,3,3)" d="M 1672.58 102.775 C 1666.58 118.391 1652.55 130.029 1644.57 145.368 C 1645.28 144 1629.34 166.032 1631.67 163.774 L 1629.48 161.284 C 1627.57 161.603 1626.79 161.846 1624.87 161.322 C 1621.52 155.652 1618 142.051 1614.71 134.756 C 1606.26 115.99 1595.38 93.7359 1584.34 76.7126 C 1579.09 68.6215 1557.11 38.5942 1560.54 32.9898 C 1566.48 32.0948 1569.7 33.2615 1575.43 34.8248 C 1589.99 34.9963 1652.34 76.9914 1663.11 88.4825 C 1667.65 91.9169 1669.99 97.7565 1672.58 102.775 z"/>
<path transform="translate(0,0)" fill="rgb(22,24,22)" d="M 1575.43 34.8248 C 1589.99 34.9963 1652.34 76.9914 1663.11 88.4825 C 1663.9 91.2117 1665.21 93.4803 1664.65 95.8337 C 1662.48 95.8206 1662.24 95.716 1660.37 94.696 L 1659.52 94.9631 C 1655.02 93.8041 1648.17 87.6547 1644.12 84.5349 C 1633.5 83.6284 1618.21 63.7286 1610.05 64.1434 L 1608.94 65.704 L 1610.17 70.8325 C 1601.29 63.103 1591.04 54.02 1581 47.9826 C 1577.49 46.6405 1572.36 44.2773 1571.28 40.3867 C 1571.8 36.851 1572.15 37.5005 1575.43 34.8248 z"/>
<path transform="translate(0,0)" fill="rgb(205,206,203)" d="M 1581 47.9826 C 1579.29 45.477 1578.17 44.8616 1578.47 42.3425 C 1588.97 41.7795 1631.94 73.2844 1641.06 81.4654 C 1642.13 82.4382 1643.15 83.4626 1644.12 84.5349 C 1633.5 83.6284 1618.21 63.7286 1610.05 64.1434 L 1608.94 65.704 L 1610.17 70.8325 C 1601.29 63.103 1591.04 54.02 1581 47.9826 z"/>
<path transform="translate(0,0)" fill="rgb(244,245,244)" d="M 1610.17 70.8325 L 1608.94 65.704 L 1610.05 64.1434 C 1618.21 63.7286 1633.5 83.6284 1644.12 84.5349 C 1648.17 87.6547 1655.02 93.8041 1659.52 94.9631 C 1660.06 96.144 1660.58 97.7582 1661.03 99.0077 C 1655.85 119.258 1616.67 76.4448 1610.17 70.8325 z"/>
<path transform="translate(0,0)" fill="rgb(22,24,22)" d="M 1622.03 114.307 C 1625.38 114.6 1628.71 114.934 1632.05 115.309 L 1632.75 116.419 L 1630.56 120.343 C 1631.74 123.773 1634.02 123.511 1636.26 126.103 C 1635.68 128.862 1634.61 129.8 1632.79 131.849 C 1632.35 132.494 1632.07 133.699 1631.81 134.461 C 1630.44 135.837 1628.85 135.89 1627.01 136.135 L 1625.15 134.711 C 1622.73 128.655 1622.83 120.821 1622.03 114.307 z"/>
<path transform="translate(0,0)" fill="rgb(3,3,3)" d="M 23.4767 176.933 C 45.9797 178.36 113.561 214.005 127.559 232.864 L 126.143 234.626 L 124.226 231.918 C 123.557 236.208 108.824 252.751 104.949 256.677 C 99.4929 262.205 80.5086 298.767 78.3101 300.425 C 77.1514 300.047 75.6966 299.573 73.9457 299.002 C 69.9112 295.168 67.2488 283.739 66.0973 278.771 C 61.2107 257.523 50.8743 237.858 40.0168 219.153 C 34.2381 209.198 14.7073 189.309 18.2362 178.148 L 19.4048 178.347 L 32.7279 187.882 L 35.3028 185.211 C 31.5585 182.235 27.7794 178.991 23.4767 176.933 z"/>
<path transform="translate(0,0)" fill="rgb(22,24,22)" d="M 23.4767 176.933 C 45.9797 178.36 113.561 214.005 127.559 232.864 L 126.143 234.626 L 124.226 231.918 C 117.202 228.594 117.84 232.495 107.887 231.063 C 104.234 231.304 98.116 232.322 94.2981 232.829 C 83.5136 228.421 66.382 212.963 56.7427 204.843 C 50.288 201.448 38.5551 192.336 32.7279 187.882 L 35.3028 185.211 C 31.5585 182.235 27.7794 178.991 23.4767 176.933 z"/>
<path transform="translate(0,0)" fill="rgb(244,245,244)" d="M 56.7427 204.843 L 54.2666 200.363 C 56.0321 199.446 59.3684 199.71 61.4884 199.714 C 69.5863 203.857 106.118 223.147 109.339 228.863 L 107.887 231.063 C 104.234 231.304 98.116 232.322 94.2981 232.829 C 83.5136 228.421 66.382 212.963 56.7427 204.843 z"/>
<path transform="translate(0,0)" fill="rgb(205,206,203)" d="M 35.3028 185.211 C 44.0655 190.292 52.4059 195.178 61.4884 199.714 C 59.3684 199.71 56.0321 199.446 54.2666 200.363 L 56.7427 204.843 C 50.288 201.448 38.5551 192.336 32.7279 187.882 L 35.3028 185.211 z"/>
<path transform="translate(0,0)" fill="rgb(3,3,3)" d="M 38.8443 36.601 C 39.7776 39.7029 42.4946 44.3921 46.073 44.5774 C 56.3381 40.3797 100.703 65.0201 110.043 72.3903 C 113.939 74.6804 132.516 85.9235 134.125 88.1335 L 134.001 88.558 C 142.174 97.3001 122.59 112.268 118.989 119.575 C 112.266 133.215 107.077 144.72 98.2084 157.154 C 88.1655 124.989 74.4237 94.7152 53.3346 68.6021 C 47.83 61.7862 37.486 49.9016 33.4599 43.8768 L 35.2771 42.045 L 34.7212 39.0173 L 32.862 37.7432 L 33.9733 37.3871 L 34.851 37.9634 C 36.167 37.0107 37.2527 36.9333 38.8443 36.601 z"/>
<path transform="translate(0,0)" fill="rgb(244,245,244)" d="M 46.073 44.5774 C 56.3381 40.3797 100.703 65.0201 110.043 72.3903 C 113.939 74.6804 132.516 85.9235 134.125 88.1335 L 134.001 88.558 L 123.626 89.4147 C 107.61 90.6413 94.4996 78.7466 82.8197 68.7459 C 71.0055 61.0298 58.1401 51.4598 46.073 44.5774 z"/>
<path transform="translate(0,0)" fill="rgb(205,206,203)" d="M 46.073 44.5774 C 56.3381 40.3797 100.703 65.0201 110.043 72.3903 C 98.8727 74.0473 86.3922 57.6053 69.7283 56.4891 C 73.6953 58.9591 80.8601 64.5215 82.8197 68.7459 C 71.0055 61.0298 58.1401 51.4598 46.073 44.5774 z"/>
<path transform="translate(0,0)" fill="url(#Gradient3)" d="M 1708.85 514.973 C 1725.25 517.413 1741.35 521.606 1757.8 523.654 C 1778.2 526.193 1798.58 526.859 1819.08 527.934 C 1859.62 530.06 1900.83 531.796 1941.32 527.557 C 1960.29 525.572 1978.73 521.653 1997.37 517.807 C 2002.94 516.657 2009.06 516.525 2014.47 515.109 C 2013.33 517.943 2012.32 520.992 2010.85 523.669 C 1955.2 539.554 1878.43 535.871 1820.46 533.917 C 1794.27 533.034 1767.37 532.679 1741.41 528.926 C 1732.07 527.576 1723.01 525.113 1713.92 522.656 C 1711.11 520.212 1709.65 518.743 1708.85 514.973 z"/>
<path transform="translate(0,0)" fill="url(#Gradient2)" d="M 296.98 82.3414 L 298.65 81.7938 C 299.638 84.035 298.536 85.3231 297.528 88.1573 L 296.981 88.593 L 298.434 88.88 C 287.021 92.2268 229.707 88.6851 211.557 89.8969 C 200.629 89.2427 165.342 89.025 155.782 92.0084 L 152.049 93.1348 C 151.225 89.038 150.888 90.0596 152.006 86.543 C 160.33 79.3058 233.101 85.24 248.837 84.6036 C 263.575 84.0074 281.727 83.7164 296.98 82.3414 z"/>
<path transform="translate(0,0)" fill="rgb(3,3,3)" fill-opacity="0.952941" d="M 1993.65 452.19 C 1993.58 443.622 1997.66 430.663 1997.45 422.857 C 1997.14 411.298 1996.59 400.362 1996.54 388.663 C 1996.3 353.953 1996.4 319.241 1996.83 284.533 C 1996.92 271.446 1994.34 218.797 2000.78 209.632 C 2000.29 232.415 2000.07 255.203 2000.13 277.992 C 2000.41 311.46 2005.11 428.511 1993.65 452.19 z"/>
<path transform="translate(0,0)" fill="url(#Gradient1)" d="M 38.8443 36.601 L 39.6774 35.2187 C 62.7052 38.3673 129.095 66.709 137.516 87.4341 C 136.006 87.9069 135.693 88.0403 134.125 88.1335 C 132.516 85.9235 113.939 74.6804 110.043 72.3903 C 100.703 65.0201 56.3381 40.3797 46.073 44.5774 C 42.4946 44.3921 39.7776 39.7029 38.8443 36.601 z"/>
<path transform="translate(0,0)" fill="rgb(3,3,3)" fill-opacity="0.945098" d="M 1663.5 490.896 C 1657.28 485.177 1660.77 481.906 1661.28 473.194 C 1661.01 476.399 1661.06 477.428 1659.51 480.201 L 1658.53 479.719 C 1658.05 475.382 1658.74 418.921 1658.76 418.85 C 1664.76 401.473 1658.67 283.108 1663.69 275.29 L 1663.08 426.387 C 1663.12 447.24 1662.67 470.353 1663.5 490.896 z"/>
<path transform="translate(0,0)" fill="rgb(3,3,3)" fill-opacity="0.94902" d="M 1439.72 510.412 C 1441.09 494.125 1439.83 472.792 1445.36 457.44 C 1444.89 461.044 1444.63 464.701 1444.3 468.321 C 1446.54 463.088 1445.62 455.955 1448.86 451.628 C 1448.14 469.702 1447.22 493.837 1439.72 510.412 z"/>
<path transform="translate(0,0)" fill="rgb(3,3,3)" fill-opacity="0.847059" d="M 1055.14 586.032 C 1057.68 589.453 1059.49 587.8 1062.89 589.402 C 1061.62 590.467 1060.33 591.499 1059.01 592.497 C 1055.35 595.246 1049.46 600.352 1044.6 599.666 C 1043.67 596.952 1045.17 594.51 1046.1 591.843 C 1049.01 589.577 1051.69 587.447 1055.14 586.032 z"/>
<path transform="translate(0,0)" fill="rgb(22,24,22)" fill-opacity="0.988235" d="M 1344.66 514.646 C 1349.32 514.865 1355.84 514.57 1360.19 516.355 C 1360.93 519.629 1361.89 521.191 1364.39 523.43 C 1359.53 522.276 1354.78 522.673 1349.86 523.049 L 1345.79 522.879 L 1344.66 514.646 z"/>
<path transform="translate(0,0)" fill="rgb(90,94,90)" fill-opacity="0.988235" d="M 19.4048 178.347 L 23.4767 176.933 C 27.7794 178.991 31.5585 182.235 35.3028 185.211 L 32.7279 187.882 L 19.4048 178.347 z"/>
</svg>